<?xml version="1.0" standalone="no"?>
<!DOCTYPE svg PUBLIC "-//W3C//DTD SVG 1.1//EN" "http://www.w3.org/Graphics/SVG/1.1/DTD/svg11.dtd" >
<!--
2013-9-30: Created.
-->
<svg>
<metadata>
Created by iconfont
</metadata>
<defs>

<font id="iconfont" horiz-adv-x="1024" >
  <font-face
    font-family="iconfont"
    font-weight="500"
    font-stretch="normal"
    units-per-em="1024"
    ascent="896"
    descent="-128"
  />
    <missing-glyph />
    
    <glyph glyph-name="tianjiagudongzhanghu01" unicode="&#59251;" d="M960.192 814.944c0 27.104-21.504 49.056-48 49.056h-864.192c-26.528 0-48-21.984-48-49.056v-110.528h960l0.192 110.528zM816 416.416c52.992 0 102.272-15.392 144.096-41.6l-0.096 201.6h-960v-399.36c0-27.104 21.504-49.056 48-49.056h496.8c-0.32 5.472-0.832 10.88-0.832 16.416 0.032 150.208 121.824 272 272.032 272zM384 384.064c0-17.472-14.176-31.648-31.648-31.648h-192.704c-17.472 0-31.648 14.176-31.648 31.648v0.704c0 17.472 14.176 31.648 31.648 31.648h192.704c17.472 0 31.648-14.176 31.648-31.648v-0.704zM832.064 320.704c-106.112 0-192.128-86.112-192.128-192.352s86.016-192.352 192.128-192.352c106.112 0 192.128 86.112 192.128 192.352 0 106.24-86.016 192.352-192.128 192.352zM896 96.416h-32v-32c0-17.664-14.336-32-32-32s-32 14.336-32 32v32h-32c-17.664 0-32 14.336-32 32s14.336 32 32 32h32v32c0 17.664 14.336 32 32 32s32-14.336 32-32v-32h32c17.664 0 32-14.336 32-32s-14.336-32-32-32z"  horiz-adv-x="1025" />

    
    <glyph glyph-name="icontd" unicode="&#59254;" d="M336.869 479.010c19.239-19.24 42.264-34.633 67.394-45.038 25.109-10.405 52.324-15.815 79.499-15.815 27.175 0 54.37 5.41 79.479 15.815 25.149 10.405 48.174 25.798 67.413 45.038 19.2 19.22 34.616 42.245 45.017 67.393 10.403 25.111 15.798 52.285 15.798 79.5 0 27.176-5.395 54.369-15.798 79.499-10.401 25.11-25.817 48.134-45.017 67.374-19.239 19.22-42.265 34.634-67.413 45.018-25.109 10.423-52.304 15.815-79.479 15.815-27.176 0-54.39-5.393-79.499-15.815-25.131-10.385-48.156-25.799-67.394-45.018-19.238-19.24-34.652-42.265-45.018-67.374-10.442-25.13-15.835-52.324-15.835-79.499 0-27.216 5.393-54.389 15.835-79.5 10.366-25.148 25.78-48.173 45.018-67.393zM458.307-1.392h-153.757c-90.114 0-163.417 73.315-163.417 163.418 0 90.095 73.304 163.399 163.417 163.399h358.406c5.412 0 9.792 4.376 9.792 9.789 0 5.412-4.38 9.79-9.792 9.79l-358.406-0c-100.901 0-183-82.078-183-182.979 0-100.907 82.099-182.998 183-182.998h153.757c5.413 0 9.793 4.378 9.793 9.789 0 5.415-4.38 9.792-9.793 9.792zM882.864 135.116h-141.958v141.981c0 10.815-8.761 19.583-19.584 19.583-10.825 0-19.583-8.767-19.583-19.583v-141.981h-141.997c-10.825 0-19.583-8.765-19.583-19.58 0-10.815 8.758-19.585 19.583-19.585h141.998v-141.977c0-10.814 8.758-19.585 19.583-19.585 10.824 0 19.584 8.77 19.584 19.585v141.978h141.958c10.827 0 19.585 8.769 19.585 19.585-0.001 10.814-8.76 19.579-19.586 19.579z"  horiz-adv-x="1024" />

    
    <glyph glyph-name="iconaddgg" unicode="&#59255;" d="M65.049528-60.562075 65.049528 88.175481l892.429429 0 0-148.738579L65.049528-60.563098zM65.049528 311.282838l892.429429 0 0-148.738579L65.049528 162.544259 65.049528 311.282838zM362.525664 385.65264 213.788108 385.65264 213.788108 534.390195 65.049528 534.390195 65.049528 683.128775l148.738579 0L213.788108 831.867354l148.738579 0L362.526687 683.128775l148.738579 0 0-148.738579L362.525664 534.390195 362.525664 385.65264z"  horiz-adv-x="1024" />

    
    <glyph glyph-name="tianjia2" unicode="&#59256;" d="M915.90144 485.80096 635.50464 763.0848c-31.27296 30.93504-72.2688 46.40256-113.26464 46.40256-40.99072 0-81.98656-15.46752-113.26464-46.40256L128.58368 485.80096c-62.5664-61.8752-62.5664-162.20672 0-224.08704l280.39168-277.27872c31.27808-30.93504 72.27392-46.40256 113.26464-46.40256 40.99584 0 81.99168 15.46752 113.26464 46.40256l280.3968 277.27872C978.4576 323.59424 978.4576 423.92576 915.90144 485.80096zM681.64096 349.16864l-130.15552 0 0-128.7424c0-16.39936-13.44512-29.71136-30.03392-29.71136-16.5888 0-30.03392 13.312-30.03392 29.71136l0 128.7424L361.25696 349.16864c-16.5888 0-30.03392 13.30688-30.03392 29.71136 0 16.39936 13.44 29.71136 30.03392 29.71136L491.4176 408.59136 491.4176 537.32352c0 16.39936 13.44 29.70624 30.03392 29.70624 16.59392 0 30.03392-13.30688 30.03392-29.70624l0-128.73728 130.16576 0c16.5888 0 30.0288-13.312 30.0288-29.71136S698.23488 349.16864 681.64096 349.16864z"  horiz-adv-x="1024" />

    
    <glyph glyph-name="tianjia1" unicode="&#59258;" d="M697.2 831H326.8L65 569.2v-370.3L326.8-63h370.3L959 198.8V569.2L697.2 831zM687 364H532v-155h-40V364H337v40h155V559h40v-155h155v-40z"  horiz-adv-x="1024" />

    
    <glyph glyph-name="tianjia3" unicode="&#59332;" d="M510.833431 833.304076c-247.644193 0-448.406636-200.762443-448.406636-448.406636 0-247.65545 200.762443-448.416869 448.406636-448.416869 247.65545 0 448.416869 200.76142 448.416869 448.416869C959.2503 632.541633 758.488881 833.304076 510.833431 833.304076zM779.544429 333.887672 560.358381 333.887672l0-219.186048-102.008278 0L458.350103 333.887672 239.164055 333.887672l0 102.008278 219.186048 0L458.350103 655.081998l102.008278 0 0-219.186048 219.186048 0L779.544429 333.887672z"  horiz-adv-x="1024" />

    
    <glyph glyph-name="shezhigongjutianjia" unicode="&#59259;" d="M835.321 243.713c-38.831 4.886-73.383-23.325-78.487-61.699-4.452-38.614 23.346-73.383 61.721-78.27 38.592-4.452 74.013 23.325 78.899 61.938 4.018 38.375-23.759 73.579-62.133 78.031zM1016.227 187.53c-2.346 14.42-5.733 28.406-9.121 41.763-49.841-4.865-60.44 38.809-36.702 65.543-6.363 12.292-16.331 21.63-30.752 27.364-24.606-28.645-77.184-6.58-67.65 35.204-15.484 1.911-30.965 3.605-46.236 5.712-1.694-46.215-57.681-49.624-77.401-18.655-12.314-6.146-28.211-8.057-33.506-23.107 19.086-29.492-5.955-68.084-50.063-51.97-6.993-12.292-12.944-25.018-18.243-38.592 37.115-11.032 30.535-69.148-8.274-70.625 1.911-14.638 4.886-28.645 8.709-41.784 49.194 4.886 60.222-39.026 36.464-65.739 6.363-12.314 16.331-21.652 31.407-27.364 23.538 28.841 76.55 6.58 67.211-35.008 15.289-2.107 30.556-3.801 46.453-5.495 1.477 45.802 57.486 48.777 77.423 18.221 12.292 6.363 27.994 7.862 33.293 23.346-18.677 29.47 6.146 68.279 50.037 52.165 6.58 11.879 13.161 24.823 18.243 38.179-38.18 14.42-32.86 65.738 8.708 70.842z m-118.773-21.848c-4.886-38.614-40.307-66.39-78.899-61.938-38.375 4.886-66.173 39.656-61.721 78.27 5.104 38.375 39.656 66.586 78.487 61.699 38.374-4.452 66.151-39.656 62.133-78.031zM702.758 520.067c-7.21 26.712-15.698 51.753-25.67 75.924-90.757-19.937-121.096 58.963-82.483 114.103-14.42 21.631-34.574 36.898-63.219 44.325-38.375-58.528-142.288-29.058-133.167 50.688H309.13c7.648-85.675-95.231-103.701-139.122-50.688-21.631-14.638-50.688-20.566-57.052-50.688 41.567-50.471 4.022-128.306-82.287-107.74-9.751-24.171-18.872-49.212-25.236-75.924 72.319-11.445 72.319-121.726 0-133.193 6.363-26.712 15.485-52.165 25.236-75.924 91.191 19.719 120.879-58.963 82.287-114.516 14.638-21.001 35.421-36.485 63.415-44.13 38.375 58.55 142.51 29.275 132.758-50.471h89.089c-7.648 85.697 95.422 103.505 139.335 50.471 21.826 14.638 50.884 20.784 57.052 50.906-41.784 50.276-3.605 128.524 82.483 107.74 9.972 23.759 18.46 49.212 25.67 75.924-75.295 18.459-75.295 114.95 0 133.193zM354.302 275.116c-83.13 0-152.695 56.834-173.066 133.388-4.018 14.42-5.712 29.492-5.712 44.76 0 98.402 80.159 178.365 178.778 178.365 87.391 0 160.34-63.198 174.977-146.354 1.694-10.381 3.171-20.784 3.171-32.011 0-97.989-79.938-178.148-178.148-178.148zM354.302 577.748c-69.126 0-125.136-55.553-125.136-124.484 0-10.598 1.064-21.218 4.452-30.969 13.791-53.447 62.568-93.537 120.684-93.537 68.714 0 124.289 56.009 124.289 124.506 0 7.427-0.847 15.05-2.541 22.26-9.773 58.116-61.091 102.224-121.748 102.224z m65.109-135.734a7.589 7.589 0 0 0-7.623-7.623h-44.13v-43.913c0-4.235-3.171-7.84-7.84-7.84h-13.573c-3.605 0-7.427 3.605-7.427 7.84v43.913H295.34c-4.669 0-8.47 3.388-8.47 7.623v13.161c0 4.669 3.801 8.057 8.47 8.057h43.478v43.695c0 4.648 3.822 8.057 7.427 8.057h13.573c4.669 0 7.84-3.41 7.84-8.057v-43.695h44.13c4.239 0 7.623-3.388 7.623-8.057v-13.161z"  horiz-adv-x="1024" />

    
    <glyph glyph-name="tianjia4" unicode="&#59260;" d="M512-65.3C263.9-65.3 62.7 135.9 62.7 384S263.9 833.3 512 833.3 961.3 632.1 961.3 384 760.2-65.3 512-65.3z m307.4 472.9H535.7V691.4h-46.9v-283.8H204.6v-47.1h284.2v-283.8h46.9V360.4h283.7v47.2z"  horiz-adv-x="1024" />

    
    <glyph glyph-name="shangjietianjia" unicode="&#59261;" d="M981.473 127.119H853.915V254.678c0 23.482-19.037 42.52-42.52 42.52s-42.52-19.037-42.52-42.52v-127.559h-127.56c-23.482 0-42.52-19.037-42.52-42.52s19.037-42.52 42.52-42.52h127.56V-85.48c0-23.484 19.037-42.521 42.52-42.521s42.52 19.037 42.52 42.521V42.08h127.558c23.484 0 42.521 19.037 42.521 42.52s-19.037 42.519-42.521 42.519zM542.546 57.108h-417.91c-33.188 0-60.473 25.766-62.901 58.345l72.909 391.872c7.804 26.386 18.075 47.289 29.778 60.569 10.351 11.745 20.787 16.756 34.893 16.756h501.819c15.652 0 25.94-4.251 35.513-14.675 11.42-12.436 21.441-33.832 29.031-61.962l28.335-152.295a102.783 102.783 0 0 0 17.382 1.48c16.966 0 32.979-4.146 47.088-11.474l-32.717 175.85c-19.41 73.922-55.8 124.63-124.632 124.63h-1.012C688.76 786.214 581.227 895.994 450.226 895.994s-238.534-109.78-249.897-249.791h-1.013c-68.831 0-105.818-58.756-124.63-124.63L0.006 120.186c0-68.83 55.799-124.631 124.63-124.631h465.918c-23.168 13.259-40.692 35.3-48.008 61.553z m-92.32 777.333c97.02 0 177.217-82.428 188.088-188.238H262.137c10.872 105.81 91.069 188.238 188.089 188.238zM419.341 457.635c-20.896 0-37.228 1.158-48.545 3.442a4.4 4.4 0 0 1-5.266-4.309v-35.298a4.398 4.398 0 0 1 5.108-4.338c6.901 1.131 20.912 1.707 41.644 1.707h18.547v-38.856h-60.845l-0.477 0.477a4.394 4.394 0 0 1-7.505-3.108v-35.298a4.396 4.396 0 0 1 5.249-4.313c5.825 1.149 12.769 2.308 20.643 3.445 8.262 0.016 17.15 0.609 26.43 1.766h72.083c8.996 0 19.358-1.151 30.798-3.423 2.704-0.681 4.692-0.994 6.254-0.994 4.237 0 6.168 2.738 6.168 5.283v33.533a4.398 4.398 0 0 1-6.658 3.77c-1.311-0.334-7.004-1.139-31.269-1.139h-20.311v38.856h15.017c11.315 0 19.936-0.567 25.624-1.684 0.278-0.055 0.562-0.082 0.846-0.082h17.649a4.396 4.396 0 0 1 4.397 4.396V455a4.395 4.395 0 0 1-5.468 4.264c-8.968-2.255-22.858-3.397-41.285-3.397h-15.015v25.605c0 10.68 0.988 18.785 2.937 24.114 1.928 2.256 2.358 4.415 2.358 5.888a4.397 4.397 0 0 1-2.774 4.086c-6.407 2.544-20.716 4.375-43.745 5.599a4.395 4.395 0 0 1-4.596-4.927c1.174-9.558 2.351-21.313 3.497-34.945v-23.655h-11.49zM325.074 526.031a4.398 4.398 0 0 1-5.898-2.138c-18.454-40.366-45.944-75.456-81.708-104.295a4.395 4.395 0 0 1 0.79-7.352c8.762-4.393 17.771-12.309 26.779-23.527a4.399 4.399 0 0 1 6.437-0.455c18.895 17.732 43.364 44.581 72.727 79.808 0.102 0.122 0.197 0.25 0.285 0.383 4.201 6.326 10.11 11.725 17.569 16.054 4.418 1.542 7.503 4.015 9.171 7.354a4.395 4.395 0 0 1 0.144 3.612c-1.95 4.834-8.976 12.676-46.296 30.556zM574.046 448.842h54.122c9.357-1.171 17.762-1.766 24.983-1.766h8.823a4.395 4.395 0 0 1 4.396 4.396V483.24a4.4 4.4 0 0 1-4.886 4.369c-10.299-1.153-21.416-1.738-33.042-1.738H571.97c-10.26 0-19.991 1.143-28.927 3.396a4.397 4.397 0 0 1-5.471-4.263v-33.532a4.396 4.396 0 0 1 4.396-4.396c13.164 0 23.663 0.577 32.078 1.766zM360.493 158.797a4.398 4.398 0 0 1 7.734-1.048c4.196 2.087 25.577 7.252 116.881 19.336 13.999 1.153 30.739 3.547 49.756 7.111a4.396 4.396 0 0 1 3.587 4.321c0 12.639 1.152 24.191 3.424 34.336a4.398 4.398 0 0 1-1.146 4.034 4.398 4.398 0 0 1-4.009 1.236c-26.409-5.297-48.351-9.198-65.33-11.62v41.738h9.722c9.037 0 19.579-0.586 31.334-1.744 0.144-0.015 0.287-0.021 0.431-0.021 16.405 0 19.032 1.323 20.761 3.055a4.401 4.401 0 0 1 1.286 3.107v31.768c0 1.23-0.517 2.405-1.422 3.238a4.39 4.39 0 0 1-3.344 1.144c-13.819-1.162-29.727-1.752-47.282-1.752h-11.485v9.725c0 6.111 1.442 11.584 4.409 16.711 3.088 3.174 4.414 5.584 4.414 7.995a4.4 4.4 0 0 1-1.323 3.143c-1.669 1.632-4.806 3.059-14.697 4.723a4.249 4.249 0 0 1-0.73 0.062c-8.179 0-18.731 0.588-31.366 1.746a4.413 4.413 0 0 1-3.737-1.516 4.4 4.4 0 0 1-0.931-3.924c2.257-9.077 3.401-18.219 3.401-27.176v-11.488H414.05c-18.551 0-33.697 1.159-45.015 3.445a4.402 4.402 0 0 1-3.655-0.906 4.405 4.405 0 0 1-1.612-3.405v-35.297c0-1.24 0.525-2.424 1.444-3.258a4.392 4.392 0 0 1 3.384-1.117c11.853 1.17 26.6 2.35 43.835 3.51h18.399v-50.091c-6.522-0.985-14.667-1.961-24.293-2.909-25.357-2.621-42.346-3.95-50.496-3.95-3.209 0-4.086 0.208-4.125 0.216a4.397 4.397 0 0 1-5.518-5.708c3.245-8.674 7.725-20.995 14.095-38.77zM629.312 346.482h9.72c12.484 0 21.7-0.565 27.391-1.682a4.393 4.393 0 0 1 3.64 0.919 4.392 4.392 0 0 1 1.604 3.396v33.53a4.396 4.396 0 0 1-5.796 4.168c-6.52-2.19-19.11-3.301-37.426-3.301h-68.588c-10.891 1.187-18.474 1.765-23.182 1.765a4.396 4.396 0 0 1-4.396-4.398v-31.764a4.398 4.398 0 0 1 5.766-4.179c1.417 0.466 7.904 1.546 37.454 1.546h9.724V174.91c-0.793-3.224-3.56-11.021-22.609-11.022-8.082 0-18.256 1.415-30.236 4.204a4.398 4.398 0 0 1-4.263-7.226c9.438-10.469 14.926-24.815 16.352-42.647 0.062-0.771 0.128-1.536 0.174-2.319a4.393 4.393 0 0 1 4.658-4.126c41.133 2.52 66.041 10.6 76.145 24.706 4.954 6.914 6.255 15.113 3.871 24.374V346.482zM329.336 181.457V344.495c11.354 21.408 23.981 39.131 37.539 52.69a4.397 4.397 0 0 1-0.676 6.77c-7.24 4.808-17.443 10.812-30.328 17.846a4.145 4.145 0 0 1-0.738 0.317c-2.854 0.937-5.231 2.352-7.065 4.207a4.392 4.392 0 0 1-4.034 1.213 4.402 4.402 0 0 1-3.202-2.738c-18.51-48.565-47.847-92.562-87.194-130.771a4.398 4.398 0 0 1 0.799-6.923c3.645-2.191 10.657-8.649 23.357-26.973a4.395 4.395 0 0 1 6.721-0.604c2.388 2.386 6.397 6.964 12.619 14.406 0.049 0.058 0.098 0.12 0.144 0.182 5.332 7.108 9.737 13.125 13.264 18.117v-107.18c-1.169-37.043-3.468-60.939-6.833-71.035a4.396 4.396 0 0 1 4.17-5.786h42.354a4.398 4.398 0 0 1 4.264 5.468c-2.313 9.2-4.059 19.095-5.196 29.479-1.142 9.087-1.134 21.857 0.023 37.961a3.74 3.74 0 0 1 0.012 0.316z"  horiz-adv-x="1024" />

    
    <glyph glyph-name="tianjiafujian" unicode="&#60100;" d="M512 277.333333H256c-93.866667 0-170.666667 76.8-170.666667 170.666667s76.8 170.666667 170.666667 170.666667h435.2c128 0 247.466667-106.666667 247.466667-234.666667s-115.2-234.666667-247.466667-234.666667H341.333333v85.333334h349.866667c81.066667 0 162.133333 68.266667 162.133333 149.333333s-76.8 149.333333-162.133333 149.333333H243.2c-46.933333 0-81.066667-38.4-81.066667-85.333333s34.133333-85.333333 81.066667-85.333333h362.666667c12.8 0 21.333333 12.8 21.333333 21.333333 0 12.8-8.533333 21.333333-21.333333 21.333333H341.333333v85.333334h264.533334c59.733333 0 106.666667-46.933333 106.666666-106.666667s-46.933333-106.666667-106.666666-106.666667H512z"  horiz-adv-x="1024" />

    
    <glyph glyph-name="xianshi_tianjiatianchong" unicode="&#59262;" d="M512 832C262.4 832 64 633.6 64 384s198.4-448 448-448 448 198.4 448 448-198.4 448-448 448z m224-480h-192v-192c0-12.8-12.8-32-32-32s-32 12.8-32 32v192h-192c-12.8 0-32 12.8-32 32s12.8 32 32 32h192v192c0 19.2 12.8 32 32 32s32-12.8 32-32v-192h192c12.8 0 32-12.8 32-32s-19.2-32-32-32z"  horiz-adv-x="1024" />

    
    <glyph glyph-name="tianjia5" unicode="&#59263;" d="M819.8 699.1C647.9 871 369.1 871 197.2 699.1s-171.9-450.7 0-622.7c171.9-171.9 450.7-171.9 622.7 0s171.9 450.8-0.1 622.7zM508.5 75.4c-33.6 0-61.1 27.5-61.1 61.1V326.7H257.3c-33.6 0-61.1 27.5-61.1 61.1s27.5 61.1 61.1 61.1h190.1V639c0 33.6 27.5 61.1 61.1 61.1s61.1-27.5 61.1-61.1v-190.1h190.1c33.6 0 61.1-27.5 61.1-61.1s-27.5-61.1-61.1-61.1H569.6v-190.1c0-33.7-27.5-61.2-61.1-61.2z"  horiz-adv-x="1024" />

    
    <glyph glyph-name="tianjiafujian1" unicode="&#59264;" d="M372.790095-97.882849a371.163769 371.163769 0 0 1 263.64554 108.783149l366.706431 365.140339A273.283028 273.283028 0 0 1 1084.217436 571.019075a273.343263 273.343263 0 0 1-81.07537 194.857967 277.92107 277.92107 0 0 1-391.522963 0L244.792203 400.736703a179.739157 179.739157 0 0 1 0-254.670629 181.726889 181.726889 0 0 1 255.754847 0l244.430797 243.467049a26.984967 26.984967 0 0 1 0 38.248782 27.225905 27.225905 0 0 1-38.36925 0l-244.551266-243.406815a127.094377 127.094377 0 0 0-178.895877 0 125.769223 125.769223 0 0 0 0 178.112831l366.766665 365.200574a223.529495 223.529495 0 0 0 314.724228 0 219.855202 219.855202 0 0 0 65.233749-156.66942c0-59.150085-23.129972-114.927048-65.233749-156.729654l-366.706431-365.140339a317.1336 317.1336 0 0 0-225.276289-92.881293 317.193834 317.193834 0 0 0-225.27629 92.881293 316.772194 316.772194 0 0 0 0 448.685316L500.54705 849.361785a26.984967 26.984967 0 0 1-11.926392 45.778069 27.225905 27.225905 0 0 1-26.503093-7.589522L109.084321 535.962711a370.501192 370.501192 0 0 1 0-525.062411A371.284238 371.284238 0 0 1 372.790095-97.882849z"  horiz-adv-x="1084" />

    
    <glyph glyph-name="tianjiahtml" unicode="&#59266;" d="M577.7 826L954 449.7V-58H70V826h507.7m29 70H0v-1024h1024V478.7L606.7 896zM294.3 432.3c-19.3 0-35 15.7-35 35V756c0 19.3 15.7 35 35 35s35-15.7 35-35v-288.7c0-19.3-15.6-35-35-35zM438.7 576.7H150c-19.3 0-35 15.7-35 35s15.7 35 35 35h288.7c19.3 0 35-15.7 35-35s-15.7-35-35-35zM362.1 17c-5.7 0-11.4 1.4-16.7 4.3L133.3 136.8c-11.3 6.1-18.3 17.9-18.3 30.7s7 24.6 18.3 30.7l212.1 115.5c17 9.2 38.2 3 47.5-14s3-38.2-14-47.5l-155.7-84.8 155.7-84.8c17-9.2 23.2-30.5 14-47.5-6.4-11.5-18.4-18.1-30.8-18.1zM661.9 17c-12.4 0-24.4 6.6-30.8 18.3-9.2 17-3 38.2 14 47.5l155.7 84.8-155.7 84.8c-17 9.2-23.2 30.5-14 47.5s30.5 23.2 47.5 14l212.1-115.5c11.3-6.1 18.3-17.9 18.3-30.7s-7-24.6-18.3-30.7L678.6 21.3c-5.3-2.9-11-4.3-16.7-4.3zM590.1 20.7c-5.6 0-11 3.2-13.5 8.5L423.7 349.6c-3.6 7.5-0.4 16.4 7.1 20 7.5 3.6 16.4 0.4 20-7.1l152.8-320.3c3.6-7.5 0.4-16.4-7.1-20-2-1-4.2-1.5-6.4-1.5z"  horiz-adv-x="1024" />

    
    <glyph glyph-name="tianjiashebei" unicode="&#59267;" d="M512.085191-127.998862a315.647211 315.647211 0 0 0-224.625216 93.013101L93.014239 159.43153A315.4481 315.4481 0 0 0 0.001138 383.999858a315.4481 315.4481 0 0 0 93.013101 224.568327l194.445736 194.417292A315.561878 315.561878 0 0 0 512.085191 895.998578a315.4481 315.4481 0 0 0 224.568327-93.013101l194.445736-194.417292c123.875246-123.818357 123.875246-325.318298 0-449.136655l-194.445736-194.388847A315.476545 315.476545 0 0 0 512.085191-127.998862zM668.443911 440.888604H540.444231v127.99968a42.66656 42.66656 0 1 1-85.33312 0V440.888604h-127.99968a42.66656 42.66656 0 0 1 0-85.33312H455.111111v-127.99968a42.66656 42.66656 0 1 1 85.33312 0V355.555484h127.99968a42.66656 42.66656 0 0 1 0 85.33312z"  horiz-adv-x="1024" />

    
    <glyph glyph-name="tianjiapcmoban" unicode="&#59268;" d="M921.6 793.6v-614.4H102.4V793.6h819.2m0 102.4H102.4C46.08 896 0 849.92 0 793.6v-614.4c0-56.32 46.08-102.4 102.4-102.4h819.2c56.32 0 102.4 46.08 102.4 102.4V793.6c0 56.32-46.08 102.4-102.4 102.4zM819.2-25.6H204.8c-30.72 0-51.2-20.48-51.2-51.2s20.48-51.2 51.2-51.2h614.4c30.72 0 51.2 20.48 51.2 51.2s-20.48 51.2-51.2 51.2z"  horiz-adv-x="1024" />

    
    <glyph glyph-name="tianjia6" unicode="&#59269;" d="M512 896c281.6 0 512-230.4 512-512s-230.4-512-512-512-512 230.4-512 512 230.4 512 512 512z m32-480V640c0 19.2-12.8 32-32 32s-32-12.8-32-32v-224H256c-19.2 0-32-12.8-32-32s12.8-32 32-32h224V128c0-19.2 12.8-32 32-32s32 12.8 32 32V352H768c19.2 0 32 12.8 32 32s-12.8 32-32 32H544z"  horiz-adv-x="1024" />

    
    <glyph glyph-name="tianjiagongshi" unicode="&#59270;" d="M512-32H128a32 32 0 0 0-26.88 49.92L345.6 384 101.12 750.08A32 32 0 0 0 128 800h384a32 32 0 0 0 0-64H187.52l223.36-334.08a33.28 33.28 0 0 0 0-35.84L187.52 32H512a32 32 0 0 0 0-64zM640-32a36.48 36.48 0 0 0-17.92 5.12 32.64 32.64 0 0 0-8.96 44.8l256 384a32 32 0 0 0 53.76-35.84l-256-384a33.28 33.28 0 0 0-26.88-14.08zM896-32a33.28 33.28 0 0 0-26.88 14.08l-256 384a32 32 0 1 0 53.76 35.84l256-384a32.64 32.64 0 0 0-8.96-44.8 36.48 36.48 0 0 0-17.92-5.12zM992 672h-320a32 32 0 0 0 0 64h320a32 32 0 0 0 0-64zM832 512a32 32 0 0 0-32 32v320a32 32 0 0 0 64 0v-320a32 32 0 0 0-32-32z"  horiz-adv-x="1024" />

    
    <glyph glyph-name="tianjia7" unicode="&#59272;" d="M512 896a512 512 0 1 1 512-512A512.606923 512.606923 0 0 1 512 896zM771.277383 424.663822h-218.492177v218.492176a40.663822 40.663822 0 0 1-81.327643 0v-218.492176h-218.492177a40.663822 40.663822 0 0 1 0-81.327644h218.492177v-218.492176a40.663822 40.663822 0 0 1 81.327643 0v218.492176h218.492177a40.663822 40.663822 0 0 1 0 81.327644z"  horiz-adv-x="1024" />

    
    <glyph glyph-name="tianjia8" unicode="&#59401;" d="M514.56-61.44a442.88 442.88 0 1 0 442.88 442.88 443.392 443.392 0 0 0-442.88-442.88z m0 814.32576a371.44576 371.44576 0 1 1 371.44576-371.44576A371.8656 371.8656 0 0 1 514.56 752.88576zM693.82656 417.18272h-143.51872V560.70656a35.74272 35.74272 0 1 1-71.49056 0v-143.52384H335.29344a35.74784 35.74784 0 0 1 0-71.49056h143.52384v-143.51872a35.74272 35.74272 0 1 1 71.49056 0v143.51872h143.51872a35.74784 35.74784 0 1 1 0 71.49056z"  horiz-adv-x="1024" />

    
    <glyph glyph-name="tianjia9" unicode="&#59273;" d="M512 384m-512 0a512 512 0 1 1 1024 0 512 512 0 1 1-1024 0ZM337.92 404.48m20.48 0l307.2 0q20.48 0 20.48-20.48l0 0q0-20.48-20.48-20.48l-307.2 0q-20.48 0-20.48 20.48l0 0q0 20.48 20.48 20.48ZM491.52 558.08m20.48 0l0 0q20.48 0 20.48-20.48l0-307.2q0-20.48-20.48-20.48l0 0q-20.48 0-20.48 20.48l0 307.2q0 20.48 20.48 20.48Z"  horiz-adv-x="1024" />

    
    <glyph glyph-name="tianjiawenjian" unicode="&#59274;" d="M0 629.76h972.8a51.2 51.2 0 0 0 51.2-51.2v-552.96a51.2 51.2 0 0 0-51.2-51.2H51.2a51.2 51.2 0 0 0-51.2 51.2V629.76zM51.2 793.6h399.36c16.96768 0 42.42432-9.3696 51.2-30.72l133.12-133.12H0V742.4a51.2 51.2 0 0 0 51.2 51.2zM491.52 465.92m20.48 0l0 0q20.48 0 20.48-20.48l0-286.72q0-20.48-20.48-20.48l0 0q-20.48 0-20.48 20.48l0 286.72q0 20.48 20.48 20.48ZM348.16 322.56m20.48 0l286.72 0q20.48 0 20.48-20.48l0 0q0-20.48-20.48-20.48l-286.72 0q-20.48 0-20.48 20.48l0 0q0 20.48 20.48 20.48Z"  horiz-adv-x="1024" />

    
    <glyph glyph-name="tianjiahaoyou" unicode="&#59275;" d="M426.666667 512m-170.666667 0a170.666667 170.666667 0 1 1 341.333333 0 170.666667 170.666667 0 1 1-341.333333 0ZM640 396.8h256v-68.266667H640zM802.133333 490.666667l0-256-68.266666 0L733.866667 490.666667zM384 298.666667h85.333333a256 256 0 0 0 256-256H128a256 256 0 0 0 256 256z"  horiz-adv-x="1024" />

    
    <glyph glyph-name="tianjiaxiaoxi" unicode="&#59276;" d="M740.547 771c89.942 0 162.854-72.877 162.854-162.774l0.003-310.758c-31.811 22.938-70.875 36.453-113.096 36.453-106.875 0-193.515-86.597-193.515-193.42 0-46.124 16.153-88.477 43.112-121.717l-75.93 0.003-58.344-37.359a40.73 40.73 0 0 0-44.34 0.27l-97.55 64.153a81.455 81.455 0 0 1-44.757 13.397h-115.3C126.54 59.248 64 121.756 64 198.865v409.36C64 698.124 136.912 771 226.854 771h513.693z m47.872-464.717c91.448 0 165.581-74.16 165.581-165.641C954 49.16 879.867-25 788.419-25s-165.582 74.16-165.582 165.642c0 91.481 74.134 165.641 165.582 165.641z m2.508-74.037c-10.278 0-18.632-8.242-18.813-18.477l-0.003-0.339v-57.73h-57.695c-10.283 0-18.64-8.245-18.82-18.485l-0.003-0.338c0-10.283 8.245-18.64 18.484-18.82l0.339-0.003h57.695v-57.73c0-10.28 8.242-18.633 18.478-18.813l0.338-0.003c10.28 0 18.633 8.242 18.814 18.478l0.002 0.338v57.73h57.696c10.283 0 18.64 8.245 18.82 18.485l0.003 0.338c0 10.283-8.245 18.64-18.484 18.82l-0.339 0.003h-57.696v57.73c0 10.28-8.242 18.633-18.477 18.813l-0.339 0.003z m-475.61 232.296c-30.535 0-55.29-24.742-55.29-55.263 0-30.52 24.755-55.263 55.29-55.263 30.536 0 55.29 24.742 55.29 55.263 0 30.521-24.754 55.263-55.29 55.263z m196.028 0c-30.535 0-55.29-24.742-55.29-55.263 0-30.52 24.755-55.263 55.29-55.263 30.536 0 55.29 24.742 55.29 55.263 0 30.521-24.754 55.263-55.29 55.263z m196.028 0c-30.536 0-55.29-24.742-55.29-55.263 0-30.52 24.754-55.263 55.29-55.263 30.536 0 55.29 24.742 55.29 55.263 0 30.521-24.754 55.263-55.29 55.263z"  horiz-adv-x="1025" />

    
    <glyph glyph-name="github" unicode="&#59248;" d="M0 339.584C0 293.184 4.352 251.2 13.024 213.664 21.696 176.096 33.728 143.456 49.088 115.776 64.416 88.064 83.968 63.68 107.648 42.656 131.36 21.632 157.056 4.448 184.768-8.928 212.48-22.272 244.096-33.12 279.648-41.472 315.2-49.824 351.52-55.648 388.576-59.008 425.632-62.336 466.336-64 510.752-64 555.488-64 596.384-62.336 633.44-59.008 670.496-55.648 706.88-49.824 742.592-41.472 778.304-33.12 810.112-22.272 837.984-8.928 865.856 4.448 891.712 21.632 915.584 42.656 939.456 63.68 959.168 88.064 974.688 115.776 990.208 143.456 1002.304 176.096 1010.976 213.664 1019.648 251.2 1024 293.184 1024 339.584 1024 422.368 996.288 493.984 940.896 554.4 943.872 562.432 946.624 571.52 949.152 581.696 951.648 591.872 953.984 606.4 956.16 625.248 958.336 644.128 957.504 665.888 953.664 690.592 949.824 715.296 942.72 740.512 932.352 766.208L924.864 767.712C919.52 768.704 910.752 768.48 898.56 766.976 886.368 765.472 872.192 762.464 856 757.952 839.808 753.44 818.944 744.768 793.408 731.904 767.872 719.072 740.928 702.944 712.544 683.584 663.808 696.96 596.864 703.616 511.744 703.616 426.944 703.616 360.192 696.96 311.456 683.584 283.072 702.944 255.968 719.072 230.08 731.904 204.224 744.768 183.616 753.44 168.256 757.952 152.896 762.464 138.528 765.376 125.184 766.72 111.84 768.064 103.392 768.48 99.904 767.968 96.384 767.456 93.632 766.88 91.648 766.208 81.28 740.512 74.176 715.328 70.368 690.592 66.528 665.888 65.696 644.128 67.84 625.248 70.016 606.4 72.352 591.872 74.848 581.696 77.376 571.52 80.128 562.432 83.136 554.4 27.712 493.984 0 422.368 0 339.584ZM125.696 213.92C125.696 261.984 147.552 306.048 191.296 346.112 204.288 358.112 219.488 367.2 236.832 373.408 254.208 379.552 273.824 383.072 295.68 383.904 317.536 384.736 338.496 384.576 358.528 383.392 378.56 382.24 403.264 380.64 432.64 378.656 462.016 376.64 487.392 375.648 508.736 375.648 530.112 375.648 555.488 376.64 584.864 378.656 614.24 380.64 638.944 382.24 658.976 383.392 679.008 384.576 699.936 384.736 721.792 383.904 743.68 383.072 763.296 379.552 780.64 373.408 798.016 367.232 813.184 358.112 826.208 346.112 869.952 306.72 891.808 262.656 891.808 213.92 891.808 185.184 888.224 159.744 881.024 137.536 873.856 115.328 864.672 96.736 853.504 81.696 842.304 66.688 826.784 53.92 806.944 43.392 787.072 32.896 767.712 24.8 748.832 19.104 729.984 13.44 705.792 9.024 676.224 5.856 646.688 2.688 620.32 0.768 597.12 0.096 573.92-0.576 544.448-0.928 508.736-0.928 473.024-0.928 443.552-0.576 420.352 0.096 397.152 0.768 370.784 2.688 341.248 5.856 311.712 9.024 287.52 13.44 268.64 19.104 249.792 24.8 230.432 32.896 210.56 43.392 190.688 53.92 175.168 66.688 164 81.696 152.8 96.736 143.616 115.328 136.448 137.536 129.28 159.744 125.696 185.184 125.696 213.92ZM640 224A2 3 2520 1 0 768 224 2 3 2520 1 0 640 224zM256 224A2 3 2520 1 0 384 224 2 3 2520 1 0 256 224z"  horiz-adv-x="1024" />

    
    <glyph glyph-name="github1" unicode="&#59250;" d="M347.8 101.2c0-4-4.6-7.2-10.4-7.2-6.6-0.6-11.2 2.6-11.2 7.2 0 4 4.6 7.2 10.4 7.2 6 0.6 11.2-2.6 11.2-7.2z m-62.2 9c-1.4-4 2.6-8.6 8.6-9.8 5.2-2 11.2 0 12.4 4s-2.6 8.6-8.6 10.4c-5.2 1.4-11-0.6-12.4-4.6z m88.4 3.4c-5.8-1.4-9.8-5.2-9.2-9.8 0.6-4 5.8-6.6 11.8-5.2 5.8 1.4 9.8 5.2 9.2 9.2-0.6 3.8-6 6.4-11.8 5.8zM505.6 880C228.2 880 16 669.4 16 392c0-221.8 139.6-411.6 339-478.4 25.6-4.6 34.6 11.2 34.6 24.2 0 12.4-0.6 80.8-0.6 122.8 0 0-140-30-169.4 59.6 0 0-22.8 58.2-55.6 73.2 0 0-45.8 31.4 3.2 30.8 0 0 49.8-4 77.2-51.6 43.8-77.2 117.2-55 145.8-41.8 4.6 32 17.6 54.2 32 67.4-111.8 12.4-224.6 28.6-224.6 221 0 55 15.2 82.6 47.2 117.8-5.2 13-22.2 66.6 5.2 135.8 41.8 13 138-54 138-54 40 11.2 83 17 125.6 17s85.6-5.8 125.6-17c0 0 96.2 67.2 138 54 27.4-69.4 10.4-122.8 5.2-135.8 32-35.4 51.6-63 51.6-117.8 0-193-117.8-208.4-229.6-221 18.4-15.8 34-45.8 34-92.8 0-67.4-0.6-150.8-0.6-167.2 0-13 9.2-28.8 34.6-24.2C872.4-19.6 1008 170.2 1008 392 1008 669.4 783 880 505.6 880zM210.4 190.2c-2.6-2-2-6.6 1.4-10.4 3.2-3.2 7.8-4.6 10.4-2 2.6 2 2 6.6-1.4 10.4-3.2 3.2-7.8 4.6-10.4 2z m-21.6 16.2c-1.4-2.6 0.6-5.8 4.6-7.8 3.2-2 7.2-1.4 8.6 1.4 1.4 2.6-0.6 5.8-4.6 7.8-4 1.2-7.2 0.6-8.6-1.4z m64.8-71.2c-3.2-2.6-2-8.6 2.6-12.4 4.6-4.6 10.4-5.2 13-2 2.6 2.6 1.4 8.6-2.6 12.4-4.4 4.6-10.4 5.2-13 2z m-22.8 29.4c-3.2-2-3.2-7.2 0-11.8 3.2-4.6 8.6-6.6 11.2-4.6 3.2 2.6 3.2 7.8 0 12.4-2.8 4.6-8 6.6-11.2 4z"  horiz-adv-x="1024" />

    
    <glyph glyph-name="jira" unicode="&#60380;" d="M995.114667 412.586667L554.709333 853.333333 512 896 180.266667 564.266667 28.586667 412.586667a40.96 40.96 0 0 1 0-57.472l303.061333-303.061334L512-128l331.562667 331.562667 5.162666 5.162666 146.389334 146.389334a40.32 40.32 0 0 1 0 57.472zM512 232.490667L360.490667 384 512 535.338667 663.381333 384 512 232.490667z"  horiz-adv-x="1024" />

    
    <glyph glyph-name="kefu" unicode="&#59246;" d="M516.426808 88.069169c5.168874 0 10.440102 0.307062 15.71133 0.870008 50.716378 5.885352 93.807387 40.173922 109.672247 87.410266a7.164776 7.164776 0 0 1-4.04298 8.853616 7.676546 7.676546 0 0 1-9.570094-2.968265c-0.204708-0.255885-20.368434-31.729722-98.771553-41.965115-11.770703-1.535309-23.183168-2.354141-34.032685-2.354141-54.964066 0-79.477835 20.061372-79.682543 20.26608a7.727723 7.727723 0 0 1-9.825978 0.102354 7.164776 7.164776 0 0 1-1.535309-9.416562 133.827778 133.827778 0 0 1 112.077565-60.798241z m421.851767 470.009296c-0.716478 0-1.330601-0.153531-1.995902-0.153531-45.956919 192.425409-221.596282 335.925633-432.189515 335.925633-216.376231 0-396.109751-151.483832-435.925433-351.790494C29.477935 535.304713 0 502.397921 0 462.633415v-159.262732c0-44.626318 37.00095-80.808436 82.753161-80.808436 25.793193 0 48.515768 11.770703 63.664151 29.836174 36.591534-93.551502 111.054026-168.935179 205.322005-208.750862a42.988655 42.988655 0 0 0 4.196512 6.499475c1.484132 1.842371 3.121795 3.37768 4.55475 3.37768a7.164776 7.164776 0 0 0 3.991804-1.279424c-21.801389 15.660153-100.613924 96.366235-117.707032 209.006747-7.471838 49.590484 30.962067 98.259783 75.690739 106.294567 71.801289 12.896597 143.24434 27.635564 215.04563 40.327453 45.649858 8.034784 76.867809 32.241491 95.956819 72.568944 4.452396 9.416563 10.900695 28.454396 13.868959 55.936428a8.802439 8.802439 0 0 0 8.700085 7.215953c2.968264 0 5.475936-1.432955 7.164776-3.582388l1.944725 1.228247c28.300865-39.764506 84.442001-127.686541 92.527962-220.470388 9.211855-106.038683 4.094158-178.607627-79.887251-252.916587a6.499475 6.499475 0 0 1-2.200609-4.861813c0-2.302964 1.228247-4.247689 3.070618-5.424758l2.047079-0.921186c0.614124-0.153531 1.125893-0.307062 1.68884-0.307062 0.614124 0 1.074716 0.153531 1.586486 0.307062l3.480034 1.893548c84.953771 45.240442 150.050877 120.77765 180.142936 211.565595 12.231296-17.502524 31.269129-30.092059 53.428757-34.493278-35.516817-156.243291-179.73352-254.093658-358.341147-268.934979a73.183068 73.183068 0 0 1-68.06537 43.909841c-40.37863 0-73.183068-30.91089-73.183068-69.08891 0-38.126843 32.804438-69.037733 73.183068-69.037733 32.650907 0 59.928232 20.214903 69.395971 48.055175 206.75496 16.2231 372.568344 135.056025 407.163977 319.651357 30.552651 12.384827 52.046979 41.350992 52.046978 75.230146V476.451197c0 45.035734-38.024489 81.576091-84.95377 81.576091z m-76.253686-46.315158c-53.940527 141.248438-193.704833 242.118247-358.136439 242.118246-163.715128 0-302.967665-100.050977-357.419961-240.327053-2.661202 3.172972-5.885352 5.936529-8.95597 8.700085 30.808536 170.982258 183.008846 300.971763 366.580639 300.971763 182.701784 0 334.390324-128.71008 366.2224-298.515268-3.121795-4.094158-6.038883-8.341846-8.341846-12.947773z m-510.183218-468.115748c-0.153531-0.255885-0.153531-0.307062 0 0z"  horiz-adv-x="1024" />

    
    <glyph glyph-name="kefu1" unicode="&#59247;" d="M511.947339 895.894651a511.811566 511.811566 0 1 1 0-1023.894651 513.440675 513.440675 0 0 1 512.083085 511.811566v21.721446A502.036916 502.036916 0 0 1 511.947339 895.894651z m449.090892-512.083085v-19.820819a439.859277 439.859277 0 0 0-449.090892-428.998554h-19.820819a439.044723 439.044723 0 0 0-428.998554 449.090892v19.820819a439.044723 439.044723 0 0 0 438.773205 428.998554h27.151807a441.216868 441.216868 0 0 0 434.428916-449.090892zM836.139918 376.20906a112.408482 112.408482 0 0 1-21.449928 67.608c0 7.05947-2.443663 14.390458-4.072771 21.449928a307.901494 307.901494 0 0 1-603.313157-22.264482l-1.629108-2.172144a115.123663 115.123663 0 0 1-18.463229-64.89282C187.483243 325.706699 217.350231 283.078362 253.462135 283.078362a58.376386 58.376386 0 0 1 47.515662 27.151807 122.454651 122.454651 0 0 1 0 129.51412 64.349783 64.349783 0 0 1-30.95306 24.979663 244.366265 244.366265 0 0 0 240.83653 172.685494h16.834121a236.492241 236.492241 0 0 0 220.472674-175.129157 96.117398 96.117398 0 0 1-44.257445-87.428819 103.991422 103.991422 0 0 1 32.853686-79.826313 253.054843 253.054843 0 0 0-153.679229-142.003952A126.527422 126.527422 0 0 1 543.171918 157.365494c-35.297349-2.172145-75.753542-16.562602-81.455422-39.641638a27.151807 27.151807 0 0 1 0-11.946796 20.906892 20.906892 0 0 1 6.244916-16.019566 75.482024 75.482024 0 0 1 54.303614-15.748048h12.489832a117.838843 117.838843 0 0 1 70.051662 27.151807 305.186313 305.186313 0 0 1 169.155759 131.957783 309.530603 309.530603 0 0 1 29.323952 63.535229 103.991422 103.991422 0 0 1 32.853687 79.554795zM500.815098 191.848289a89.600964 89.600964 0 0 1 88.514892 76.839615v7.874024h-48.601735v-6.787952c0-7.05947-17.648675-20.092337-46.158072-20.092337s-46.158072 13.032867-46.158072 20.092337v6.787952h-50.230844v-7.874024a89.600964 89.600964 0 0 1 95.031325-76.568097z"  horiz-adv-x="1024" />

    
    <glyph glyph-name="database-add" unicode="&#59228;" d="M672-128C512.96-128 384 0.96 384 160S512.96 448 672 448 960 319.04 960 160 831.04-128 672-128z m0 448c-88.384 0-160-71.616-160-160s71.616-160 160-160 160 71.616 160 160-71.616 160-160 160zM704 64h-64v64h-64v64h64v64h64v-64h64v-64h-64v-64z m128 492.032v-84.096c-9.6 4.928-18.88 10.24-28.992 14.336 18.496 20.608 28.992 43.904 28.992 69.76z m-108.224-49.216C706.752 509.312 689.728 512 672 512a349.845333 349.845333 0 0 1-200.064-62.784c-8.064-0.256-15.744-1.216-23.936-1.216-212.032 0-384 85.952-384 192V704c0 106.048 171.968 192 384 192s384-85.952 384-192v-64c0-51.84-41.472-98.688-108.224-133.184z m-319.808-121.088a349.994667 349.994667 0 0 1-66.24-120.704C179.84 288.832 64 361.28 64 448v108.032c0-98.56 148.864-161.728 339.968-170.304z m-79.872-184.896c-1.6-13.568-4.096-26.816-4.096-40.832 0-29.888 4.864-58.368 11.904-86.08C176.96 98.624 64 170.304 64 256v108.032c0-84.288 109.184-142.528 260.096-163.2z m33.536-196.224c26.048-52.544 64.064-97.856 111.552-131.584-7.104-0.128-13.952-1.024-21.184-1.024-212.032 0-384 85.952-384 192v108.032c0-90.432 125.376-151.296 293.632-167.424z"  horiz-adv-x="1024" />

    
    <glyph glyph-name="database-close" unicode="&#59229;" d="M712.1 417.2c-132.7 0-240.2-107.6-240.2-240.2s107.6-240.2 240.2-240.2 240.2 107.5 240.2 240.2c0 132.6-107.5 240.2-240.2 240.2zM847.6 83.5c11.6-11.6 11.6-30.4 0-41.9-5.8-5.8-13.4-8.7-21-8.7s-15.2 2.9-21 8.7l-89.1 89.1-89.1-89.1c-5.8-5.8-13.4-8.7-21-8.7s-15.2 2.9-21 8.7c-11.6 11.6-11.6 30.4 0 41.9l89.1 89.1-89.1 89.1c-11.6 11.6-11.6 30.4 0 41.9 11.6 11.6 30.4 11.6 41.9 0l89.1-89.1 89.1 89.1c11.6 11.6 30.4 11.6 41.9 0 11.6-11.6 11.6-30.4 0-41.9l-89.1-89.1 89.3-89.1zM712.1 773.9c0 32-26.2 58.2-58.2 58.2h-524.2c-32 0-58.2-26.2-58.2-58.2v-189.3h640.6v189.3zM712.1 467.4v59h-640.6v-225.7h391.9c44.6 94.7 138.5 161.3 248.7 166.7zM443.2 242.5h-371.7v-182c0-32 26.2-58.2 58.2-58.2h364.4c-36.6 48.7-58.6 109-58.6 174.7 0 22.5 2.8 44.4 7.7 65.5z"  horiz-adv-x="1024" />

    
    <glyph glyph-name="database-add1" unicode="&#59232;" d="M713.5 773.6c0 32-26.2 58.3-58.3 58.3h-524.2c-32 0-58.3-26.2-58.3-58.3v-189.3h640.8v189.3zM713.5 416.8c-132.7 0-240.3-107.6-240.3-240.3s107.6-240.3 240.3-240.3 240.3 107.6 240.3 240.3-107.6 240.3-240.3 240.3zM875 148.9h-133.9v-133.9c0-17.4-14.1-31.5-31.5-31.5s-31.5 14.1-31.5 31.5v133.9h-134c-17.4 0-31.5 14.1-31.5 31.5s14.1 31.5 31.5 31.5h133.9v134c0 17.4 14.1 31.5 31.5 31.5s31.5-14.1 31.5-31.5v-133.9h134c17.4 0 31.5-14.1 31.5-31.5 0-17.5-14.1-31.6-31.5-31.6zM713.5 467v59h-640.8v-225.7h392c44.6 94.7 138.5 161.2 248.8 166.7zM444.5 242h-371.8v-182c0-32 26.2-58.3 58.3-58.3h364.5c-36.7 48.7-58.7 109.1-58.7 174.8 0 22.5 2.8 44.4 7.7 65.5z"  horiz-adv-x="1024" />

    
    <glyph glyph-name="database-minus" unicode="&#59234;" d="M384 768C195.413333 768 42.666667 691.626667 42.666667 597.333333s152.746667-170.666667 341.333333-170.666666 341.333333 76.373333 341.333333 170.666666-152.746667 170.666667-341.333333 170.666667M42.666667 512v-128c0-94.293333 152.746667-170.666667 341.333333-170.666667s341.333333 76.373333 341.333333 170.666667V512c0-94.293333-152.746667-170.666667-341.333333-170.666667s-341.333333 76.373333-341.333333 170.666667m0-213.333333v-128c0-94.293333 152.746667-170.666667 341.333333-170.666667 60.16 0 119.04 8.106667 170.666667 23.04v128c-51.626667-14.933333-110.506667-23.04-170.666667-23.04-188.586667 0-341.333333 76.373333-341.333333 170.666667m597.333333-128v-85.333334h341.333333v85.333334"  horiz-adv-x="1024" />

    
    <glyph glyph-name="database-remove" unicode="&#59236;" d="M672-128C512.96-128 384 0.96 384 160S512.96 448 672 448 960 319.04 960 160 831.04-128 672-128z m0 448c-88.384 0-160-71.616-160-160s71.616-160 160-160 160 71.616 160 160-71.616 160-160 160zM576 128v64h192v-64h-192z m256 428.032v-84.096c-9.6 4.928-18.88 10.24-28.992 14.336 18.496 20.608 28.992 43.904 28.992 69.76z m-108.224-49.216C706.752 509.312 689.728 512 672 512a349.845333 349.845333 0 0 1-200.064-62.784c-8.064-0.256-15.744-1.216-23.936-1.216-212.032 0-384 85.952-384 192V704c0 106.048 171.968 192 384 192s384-85.952 384-192v-64c0-51.84-41.472-98.688-108.224-133.184z m-319.808-121.088a349.994667 349.994667 0 0 1-66.24-120.704C179.84 288.832 64 361.28 64 448v108.032c0-98.56 148.864-161.728 339.968-170.304z m-79.872-184.896c-1.6-13.568-4.096-26.816-4.096-40.832 0-29.888 4.864-58.368 11.904-86.08C176.96 98.624 64 170.304 64 256v108.032c0-84.288 109.184-142.528 260.096-163.2z m33.536-196.224c26.048-52.544 64.064-97.856 111.552-131.584-7.104-0.128-13.952-1.024-21.184-1.024-212.032 0-384 85.952-384 192v108.032c0-90.432 125.376-151.296 293.632-167.424z"  horiz-adv-x="1024" />

    
    <glyph glyph-name="database-add2" unicode="&#59237;" d="M672-128C512.96-128 384 0.96 384 160S512.96 448 672 448 960 319.04 960 160 831.04-128 672-128z m0 448c-88.384 0-160-71.616-160-160s71.616-160 160-160 160 71.616 160 160-71.616 160-160 160zM704 64h-64v64h-64v64h64v64h64v-64h64v-64h-64v-64z m128 492.032v-84.096c-9.6 4.928-18.88 10.24-28.992 14.336 18.496 20.608 28.992 43.904 28.992 69.76z m-108.224-49.216C706.752 509.312 689.728 512 672 512a349.845333 349.845333 0 0 1-200.064-62.784c-8.064-0.256-15.744-1.216-23.936-1.216-212.032 0-384 85.952-384 192V704c0 106.048 171.968 192 384 192s384-85.952 384-192v-64c0-51.84-41.472-98.688-108.224-133.184z m-319.808-121.088a349.994667 349.994667 0 0 1-66.24-120.704C179.84 288.832 64 361.28 64 448v108.032c0-98.56 148.864-161.728 339.968-170.304z m-79.872-184.896c-1.6-13.568-4.096-26.816-4.096-40.832 0-29.888 4.864-58.368 11.904-86.08C176.96 98.624 64 170.304 64 256v108.032c0-84.288 109.184-142.528 260.096-163.2z m33.536-196.224c26.048-52.544 64.064-97.856 111.552-131.584-7.104-0.128-13.952-1.024-21.184-1.024-212.032 0-384 85.952-384 192v108.032c0-90.432 125.376-151.296 293.632-167.424z"  horiz-adv-x="1024" />

    
    <glyph glyph-name="databaseplus-fill" unicode="&#59301;" d="M763.712 132.288V256h85.376v-123.712H972.8v-85.376h-123.712V-76.8h-85.376v123.712H640v85.376h123.712zM960 317.184H576v-88.96H64V539.776h896v-222.72zM576 183.68V-128H64v311.68h512zM64 896h896v-311.68H64V896z m134.4-133.568v-44.544h89.6v44.544H198.4z m0-356.16v-44.544h89.6v44.544H198.4z m0-356.16v-44.544h89.6v44.544H198.4z"  horiz-adv-x="1024" />

    
    <glyph glyph-name="si-glyph-database-download" unicode="&#59238;" d="M128 741.056a411.52 154.944 0 1 1 823.04 0 411.52 154.944 0 1 1-823.04 0ZM543.616 508.736C318.592 508.736 131.008 572.864 131.008 615.872v-214.144c0-77.696 184.768-140.544 412.608-140.544s412.608 62.848 412.608 140.544V615.872c0-43.008-187.584-107.136-412.608-107.136zM704.896 127.808h129.28V224c-75.2-21.12-179.136-37.12-292.48-37.12-225.024 0-412.608 62.72-412.608 104.704v-209.216c0-76.032 184.768-137.344 412.608-137.344 105.472 0 201.344 13.248 274.368 34.944l-111.168 147.84zM958.848 190.976v-127.168h64.128l-95.488-125.824-94.464 125.824h65.088v127.168h60.736z"  horiz-adv-x="1088" />

    
    <glyph glyph-name="si-glyph-database-error" unicode="&#59239;" d="M127.936032 741.133433a411.314343 154.866567 0 1 1 822.628686 0 411.314343 154.866567 0 1 1-822.628686 0ZM676.461769 139.130435l64.863568 64.7996c-59.554223-10.170915-127.744128-16.695652-199.964018-16.695652-224.911544 0-412.401799 62.688656-412.401799 104.651674v-209.111444c0-75.994003 184.675662-137.275362 412.401799-137.275363a1145.027486 1145.027486 0 0 1 166.636682 11.770115l75.226387 75.226387-106.762619 106.634683zM543.344328 261.501249c227.790105 0 412.401799 62.816592 412.401799 140.473763V616.011994c0-42.986507-187.554223-107.082459-412.401799-107.082459S130.942529 573.025487 130.942529 616.011994v-214.036982c0-77.657171 184.675662-140.473763 412.401799-140.473763zM1086.88056 141.241379l-52.197901 52.197901-108.873564-108.937531-106.69865 106.634683-52.133933-52.005997 106.69865-106.698651-107.786107-107.850075 52.069965-52.197901 107.914043 107.914043 108.873564-108.937531 52.133933 52.069965-108.937532 108.873563 108.937532 108.937531z"  horiz-adv-x="1087" />

    
    <glyph glyph-name="si-glyph-database-remove" unicode="&#59241;" d="M475.52 576c227.264 0 411.52 79.488 411.52 165.056C887.04 826.624 702.784 896 475.52 896 248.256 896 64 826.624 64 741.056 64 655.488 248.256 576 475.52 576zM888.256 69.312a45.824 45.824 0 0 1 1.984 13.056V291.584c0-41.92-187.648-104.704-412.608-104.704s-412.608 62.72-412.608 104.704v-209.216c0-76.032 184.768-137.344 412.608-137.344 56.64 0 110.592 3.84 159.68 10.624v113.664h250.944zM479.616 261.184c227.904 0 412.608 62.848 412.608 140.544V615.872c0-43.008-187.648-107.136-412.608-107.136S67.008 572.864 67.008 615.872v-214.144c0-77.696 184.768-140.544 412.608-140.544zM704 0h256v-58.368h-256z"  horiz-adv-x="1024" />

    
    <glyph glyph-name="si-glyph-database-upload" unicode="&#59243;" d="M128 677.056a411.52 154.944 0 1 1 823.04 0 411.52 154.944 0 1 1-823.04 0ZM542.656 448.768C317.632 448.768 130.048 512.896 130.048 555.904V341.76c0-77.696 184.768-140.544 412.608-140.544s412.608 62.848 412.608 140.544V555.904c0-43.008-187.648-107.136-412.608-107.136zM764.992-65.984H633.984l173.12 223.232c-72.384-17.664-165.568-30.4-266.496-30.4-225.024 0-412.608 62.72-412.608 104.704v-209.216c0-76.032 184.768-137.344 412.608-137.344 84.48 0 158.976 8.512 224.384 22.976v26.048zM833.152-126.016v127.232h-64.128l95.488 125.76 94.464-125.76h-65.088v-127.232h-60.736z"  horiz-adv-x="1024" />

    
    <glyph glyph-name="si-glyph-database-plus" unicode="&#59244;" d="M475.52 576C702.784 576 896 650.432 896 736S702.784 896 475.52 896 64 821.568 64 736 248.256 576 475.52 576zM479.616 261.184c227.904 0 412.608 62.848 412.608 140.544V615.872c0-43.008-187.648-107.136-412.608-107.136S67.008 572.864 67.008 615.872v-214.144c0-77.696 184.768-140.544 412.608-140.544zM704 64h314.56v-61.248H704zM65.024 291.584v-209.216c0-76.032 184.768-137.344 412.608-137.344 55.616 0 108.608 3.776 157.12 10.368v175.296h130.56V222.72c-74.816-20.544-176.64-35.904-287.68-35.904-225.024 0.064-412.608 62.784-412.608 104.768zM832 192h61.312v-315.968H832z"  horiz-adv-x="1024" />

    
    <glyph glyph-name="database-fill" unicode="&#59245;" d="M469.333333 597.333333V725.333333a42.666667 42.666667 0 0 0 42.666667 42.666667h384a42.666667 42.666667 0 0 0 42.666667-42.666667v-682.666666a42.666667 42.666667 0 0 0-42.666667-42.666667H128a42.666667 42.666667 0 0 0-42.666667 42.666667V554.666667a42.666667 42.666667 0 0 0 42.666667 42.666666h341.333333z m-256-384v-85.333333h213.333334v85.333333H213.333333z m384 0v-85.333333h213.333334v85.333333h-213.333334z m0 128v-85.333333h213.333334v85.333333h-213.333334z m0 128v-85.333333h213.333334v85.333333h-213.333334z m-384-128v-85.333333h213.333334v85.333333H213.333333z"  horiz-adv-x="1024" />

    
    <glyph glyph-name="buoumaotubiao47" unicode="&#59225;" d="M625.082182-64.465455l-558.545455 0 0 884.363636 884.363636 0 0-558.545455c0-12.846545-10.402909-23.272727-23.272727-23.272727s-23.272727 10.426182-23.272727 23.272727l0 512-791.272727 0 0-791.272727 512 0c12.869818 0 23.272727-10.426182 23.272727-23.272727S637.952-64.465455 625.082182-64.465455zM519.307636 171.52c23.063273 42.263273 67.351273 71.284364 118.900364 71.284364l54.388364 0 0 54.411636c0 55.482182 33.326545 103.074909 81.012364 124.229818l0 2.490182 0.069818 0-69.259636 209.291636L462.592 321.186909l-64.814545 109.800727L140.590545 171.52 519.307636 171.52 519.307636 171.52 519.307636 171.52zM398.312727 608.232727c0 42.286545-34.257455 76.590545-76.613818 76.590545-42.263273 0-76.567273-34.304-76.567273-76.590545 0-42.356364 34.304-76.613818 76.567273-76.613818C364.078545 531.618909 398.312727 565.876364 398.312727 608.232727L398.312727 608.232727zM934.190545 72.727273l-274.385455 0c-12.869818 0-23.272727 10.426182-23.272727 23.272727s10.402909 23.272727 23.272727 23.272727l274.385455 0c12.869818 0 23.272727-10.426182 23.272727-23.272727S947.037091 72.727273 934.190545 72.727273zM796.974545-64.465455c-12.869818 0-23.272727 10.426182-23.272727 23.272727l0 274.385455c0 12.846545 10.402909 23.272727 23.272727 23.272727s23.272727-10.426182 23.272727-23.272727l0-274.385455C820.247273-54.039273 809.844364-64.465455 796.974545-64.465455z"  horiz-adv-x="1024" />

    
    <glyph glyph-name="tianjiatupian" unicode="&#59226;" d="M945.230769 29.538462H157.538462V580.923077h630.153846V738.461538H0v-866.461538h1102.769231V423.384615h-157.538462v-393.846153zM236.307692 502.153846h157.538462v-78.769231H236.307692zM472.615385 305.230769A196.923077 196.923077 0 1 1 669.538462 502.153846 196.923077 196.923077 0 0 1 472.615385 305.230769z m315.076923 0A118.153846 118.153846 0 1 0 669.538462 423.384615 118.153846 118.153846 0 0 0 787.692308 305.230769zM393.846154 896h315.076923v-78.769231H393.846154zM1181.538462 738.461538h-78.769231V817.230769h-157.538462v-78.769231h-78.769231v-157.538461h78.769231v-78.769231h157.538462V580.923077h78.769231V738.461538z"  horiz-adv-x="1181" />

    
    <glyph glyph-name="tianjiatupian1" unicode="&#59227;" d="M960.2 144.5H868v92.7h-46.4v-92.7h-92.2V98h92.2v-91.6H868V98h92.2zM110.5 183l153.2-32.3 315.1 225.2 242.8-73.1v-34.3H868V736.3H64v-700.7h627.6V82H110.5V183z m711.1 506.8v-338.5l-251.3 75.6-317-226.6-142.8 30.1V689.8h711.1zM308.3 385.2c65.9 0 119.6 53.7 119.6 119.6 0 65.9-53.7 119.6-119.6 119.6-65.9 0-119.6-53.7-119.6-119.6 0-65.9 53.7-119.6 119.6-119.6z m0 192.8c40.3 0 73.1-32.8 73.1-73.1s-32.8-73.2-73.1-73.2-73.1 32.8-73.1 73.2S268 578 308.3 578z"  horiz-adv-x="1024" />

    
    <glyph glyph-name="shipin" unicode="&#59217;" d="M63.465962 102.860948c0-55.038524 44.620243-99.708909 99.709933-99.708909l697.969529 0c55.04057 0 99.709933 44.669362 99.709933 99.708909L960.855356 701.121568c0 55.089689-44.669362 99.709933-99.709933 99.709933L163.174871 800.8315c-55.089689 0-99.709933-44.620243-99.709933-99.709933L63.464939 102.860948zM761.435491 401.99177 362.59576 152.716426 362.59576 651.267113 761.435491 401.99177z"  horiz-adv-x="1024" />

    
    <glyph glyph-name="shuidi" unicode="&#59218;" d="M512 110.933333c-122.88 0-221.866667 98.986667-221.866667 221.866667 0 116.053333 165.546667 324.266667 221.866667 324.266667 54.613333 0 221.866667-209.92 221.866667-324.266667C733.866667 209.92 634.88 110.933333 512 110.933333zM510.293333 622.933333C477.866667 617.813333 324.266667 438.613333 324.266667 332.8c0-104.106667 83.626667-187.733333 187.733333-187.733333s187.733333 83.626667 187.733333 187.733333C699.733333 436.906667 539.306667 616.106667 510.293333 622.933333zM512 179.2c-66.56 0-119.466667 56.32-119.466667 126.293333 0 64.853333 83.626667 180.906667 119.466667 180.906667 34.133333 0 119.466667-121.173333 119.466667-180.906667C631.466667 235.52 578.56 179.2 512 179.2zM512 450.56c-20.48-13.653333-85.333333-97.28-85.333333-145.066667 0-51.2 37.546667-92.16 85.333333-92.16s85.333333 40.96 85.333333 92.16C597.333333 351.573333 532.48 435.2 512 450.56z"  horiz-adv-x="1024" />

    
    <glyph glyph-name="tupian" unicode="&#59219;" d="M338.8 421.1c24.8 0 45 20.1 45 45s-20.1 45-45 45c-24.8 0-45-20.1-45-45 0-24.8 20.2-45 45-45z m0 0M607.9 449.2l-161.5-188-83.8 96-136.3-161.1h545.1L607.9 449.2z m0 0M841.4 634.9H181.3c-12.4 0-22.5-10.1-22.5-22.5v-472.5c0-12.4 10.1-22.5 22.5-22.5h660.1c12.4 0 22.5 10.1 22.5 22.5V612.4c0 12.4-10.1 22.5-22.5 22.5z m-22.5-472.5H203.8V589.9h615.1v-427.5z m0 0"  horiz-adv-x="1024" />

    
    <glyph glyph-name="fenzu" unicode="&#59220;" d="M136.533333 261.753905C136.533333 328.411429 169.935238 414.086095 229.571048 516.437333c23.747048 40.706438 51.326781 83.412114 81.978514 127.405105A2906.199771 2906.199771 0 0 0 429.173029 800.416914a2774.250057 2774.250057 0 0 0 49.659123 60.172191l3.969219 4.632381L507.240838 893.366857l24.517486-28.145371 3.959466-4.642134c3.140267-3.666895 6.787657-7.9872 10.942172-12.873142a3313.176381 3313.176381 0 0 0 38.785219-47.289296 2940.362362 2940.362362 0 0 0 117.613714-156.574476c30.593219-43.99299 58.172952-86.698667 81.92-127.405105 59.63581-102.351238 93.037714-188.025905 93.037715-254.683428 0-210.690438-165.800229-381.834971-370.775772-381.834972C302.343314-120.081067 136.533333 51.063467 136.533333 261.753905m343.186286 497.566476a2801.859048 2801.859048 0 0 1-114.922057-153.102629c-29.696-42.569143-56.32-83.792457-79.160076-122.958019-54.203733-92.94019-84.085029-169.662171-84.085029-221.505828 0-174.947962 137.069714-316.386743 305.688381-316.386743 168.686933 0 305.7664 141.438781 305.7664 316.386743 0 51.843657-29.891048 128.565638-84.094781 221.505828-22.840076 39.165562-49.464076 80.388876-79.091809 122.958019a2869.150476 2869.150476 0 0 1-114.93181 153.112381 4546.998857 4546.998857 0 0 1-27.648 33.811505c-8.572343-10.435048-17.788343-21.7088-27.511467-33.811505M507.270095-6.397562c-142.833371 0-258.6624 116.90179-258.6624 261.246781 0 144.286476 134.456076 71.241143 258.6624 0 124.781714-71.553219 258.6624 144.286476 258.6624 0 0-144.335238-115.829029-261.246781-258.6624-261.246781"  horiz-adv-x="1024" />

    
    <glyph glyph-name="shipin1" unicode="&#59221;" d="M64.67 384c2.03 148.27 27.78 271.04 103.07 344.26C240.96 803.55 363.73 829.3 512 831.33c148.27-2.03 271.04-27.78 344.26-103.07C931.55 655.04 957.3 532.27 959.33 384c-2.03-148.27-27.78-271.04-103.07-344.26C783.04-35.55 660.27-61.3 512-63.33c-148.27 2.03-271.04 27.78-344.26 103.07C92.45 112.96 66.7 235.73 64.67 384zM676.18 425.16l-243 135.24c-31.39 17.47-70-5.23-70-41.16v-270.48c0-35.93 38.61-58.63 70-41.16l243 135.24c32.26 17.96 32.26 64.36 0 82.32z"  horiz-adv-x="1024" />

    
    <glyph glyph-name="V1" unicode="&#59222;" d="M727.8 150.8c0-29.7-5.7-57.4-17.1-83.2-11.4-25.8-26.9-48.5-46.5-68.1-19.7-19.6-42.4-35.2-68.2-46.5s-53.6-17-83.3-17c-29.8 0-57.7 5.7-84 17-26.2 11.3-49.2 26.9-68.9 46.5-19.7 19.6-35.2 42.4-46.6 68.1s-17.1 53.5-17.1 83.2c0 20.1 5.2 50.9 15.7 92.4s23.8 87.5 40 138.2c16.1 50.7 33.7 102.7 52.5 155.9s36.3 101.7 52.4 145.4 34.8 93.4 55.8 149.3c21-55.9 39.6-105.7 55.8-149.3 16.1-43.7 33.5-92.2 51.8-145.4 18.4-53.3 35.7-105.2 51.8-155.9s29.5-96.7 40-138.2c10.5-41.5 15.9-72.3 15.9-92.4z"  horiz-adv-x="1024" />

    
    <glyph glyph-name="kaoyou" unicode="&#59223;" d="M0 896v-1024h1024V896H0z m73.142857-73.142857h877.714286v-877.714286H73.142857V822.857143zM585.142857 676.571429v-585.142858h292.571429V676.571429H585.142857z m73.142857-73.142858h146.285715v-438.857142H658.285714V603.428571z"  horiz-adv-x="1024" />

    
    <glyph glyph-name="kaozuo" unicode="&#59224;" d="M1024 896v-1024H0V896h1024z m-73.142857-73.142857H73.142857v-877.714286h877.714286V822.857143zM512 676.571429v-585.142858H219.428571V676.571429h292.571429zM438.857143 603.428571H292.571429v-438.857142h146.285714V603.428571z"  horiz-adv-x="1024" />

    
    <glyph glyph-name="bianji" unicode="&#59209;" d="M238.03586 725.464999c-47.958268 0-87.172385-38.969547-87.172385-87.172385l0-525.325493c0-47.959292 39.214117-86.927815 87.172385-86.927815l525.570063 0c47.959292 0 86.928838 38.968523 86.928838 86.927815L850.534761 458.191746l90.184999 87.172385 0-464.36612c0-80.18218-67.949578-145.132448-148.132782-145.132448L206.067774-64.134437c-80.183204 0-145.132448 64.950268-145.132448 145.132448L60.935326 661.271978c0 80.18218 64.949244 154.12117 145.132448 154.12117L670.432871 815.393147l-86.926792-89.929172L238.03586 725.463975zM559.524898 298.569282l-194.83443-55.203276 55.703673 193.591113L559.524898 298.569282zM579.016835 318.047916 439.628204 456.191182l306.244846 304.242236 139.387607-138.130987L579.016835 318.047916zM948.208315 684.750715l-41.715077-41.469484L767.107677 781.669068l41.714054 41.470507c15.490809 15.233959 39.714514 15.990183 53.958936 1.743714l87.173408-86.428442C964.198497 724.220658 963.442274 699.985698 948.208315 684.750715z"  horiz-adv-x="1024" />

    
    <glyph glyph-name="bianji1" unicode="&#59210;" d="M815.9424 563.9808l-123.8208 123.9104 64.0448 64.0896c21.344 21.3568 55.5072 21.3568 72.5824 0l51.2384-51.2768c21.3504-21.3632 21.3504-55.5456 0-72.64L815.9424 563.9808 815.9424 563.9808zM457.2992 205.0816 333.4784 328.992l337.2928 333.2544 123.8208-123.8976L457.2992 205.0816 457.2992 205.0816zM235.2832 102.5408l76.8512 200.8128 123.8208-123.904L235.2832 102.5408 235.2832 102.5408zM866.0928 59.8144c17.088 0 29.9008-12.8128 29.9008-29.9008 0-17.0944-12.8128-29.9136-29.9008-29.9136L157.9072 0c-18.72 0-29.9072 12.8192-29.9072 29.9136 0 17.088 12.8128 29.9008 29.9072 29.9008L866.0928 59.8144 866.0928 59.8144zM865.8112 59.8144"  horiz-adv-x="1024" />

    
    <glyph glyph-name="bianji2" unicode="&#59211;" d="M1005.037624 737.007893 899.701554 631.955278 759.214916 772.032594 864.587825 877.084185c19.389606 19.335371 50.835805 19.335371 70.225411 0l70.224388-70.047356C1024.42723 787.702482 1024.42723 756.343263 1005.037624 737.007893zM267.31879 281.80855l140.484591-140.091642-187.231265-46.62183L267.31879 281.80855zM864.587825 596.95002l-421.387259-420.210457L302.75179 316.796412l421.352467 420.211481L864.587825 596.95002zM113.70518 714.276169l0-728.575594 728.57764 0L842.28282 532.131759l109.289102 72.858378 0-692.146916c0-27.535123-8.895601-36.429701-36.432771-36.429701L54.296115-123.58648c-27.535123 0-49.875944 22.305005-49.875944 49.841152L4.420171 787.133523c0 27.535123 8.858762 36.429701 36.428677 36.429701l692.14794 0L623.709733 714.276169 113.70518 714.276169z"  horiz-adv-x="1024" />

    
    <glyph glyph-name="shanchu4" unicode="&#59212;" d="M916.48 714.24h-232.96l-74.24 74.24c-5.12 5.12-10.24 5.12-15.36 5.12h-161.28c-5.12 0-10.24-2.56-15.36-5.12l-74.24-74.24h-232.96c-10.24 0-20.48-7.68-20.48-20.48 0-10.24 10.24-20.48 20.48-20.48h240.64c5.12 0 12.8 2.56 15.36 5.12l74.24 74.24h138.24l74.24-74.24c5.12-5.12 10.24-5.12 15.36-5.12h240.64c10.24 0 20.48 7.68 20.48 20.48 7.68 10.24-2.56 20.48-12.8 20.48zM394.24 99.84v424.96c0 10.24-33.28 20.48-40.96 20.48s-12.8-7.68-12.8-20.48v-424.96c0-10.24 5.12-20.48 12.8-20.48 5.12 2.56 40.96 10.24 40.96 20.48zM555.52 99.84v424.96c0 10.24-33.28 20.48-40.96 20.48-7.68 0-12.8-7.68-12.8-20.48v-424.96c0-10.24 5.12-20.48 12.8-20.48 7.68 2.56 40.96 10.24 40.96 20.48zM719.36 99.84v424.96c0 10.24-33.28 20.48-40.96 20.48-7.68 0-12.8-7.68-12.8-20.48v-424.96c0-10.24 5.12-20.48 12.8-20.48 7.68 2.56 40.96 10.24 40.96 20.48zM855.04 573.44c-10.24 0-20.48-7.68-20.48-20.48V25.6c0-23.04-17.92-40.96-40.96-40.96h-560.64c-23.04 0-40.96 17.92-40.96 40.96v529.92c0 10.24-10.24 20.48-20.48 20.48s-17.92-5.12-20.48-15.36V25.6c0-43.52 35.84-79.36 81.92-79.36h560.64c46.08 0 81.92 35.84 81.92 79.36v529.92c0 10.24-10.24 17.92-20.48 17.92z"  horiz-adv-x="1024" />

    
    <glyph glyph-name="bianji3" unicode="&#59213;" d="M531.8 258.6l-205-101.4c-23.1-10.7-41.6 10-33 33.1l101.3 205.1c1.7 8.8 5.1 17.4 12 24.3l283.5 283.7H246.4c-36.4 0-66-29.5-66-66v-527.9c0-36.4 29.5-66 66-66h527.9c36.4 0 66 29.5 66 66V554.9L556.1 270.6c-6.9-6.9-15.4-10.3-24.3-12z m-193.2-40c-5.4-10.8 5-21.9 16.5-16.5l126.6 76.7-66.5 66.5-76.6-126.7zM821 601.9l19.3 19.3v16.2c0 36.4-29.5 66-66 66h-17.5l-17.4-17.5 81.6-84zM440.2 386.5c8.8-8.8 51.7-51.8 82.8-82.8l264.9 265-83.4 82.3-264.3-264.5z m480.1 314.8l-82.8 82.8c-18.3 18.3-47.9 18.3-66.2 0l-80.7-80.8h66.2l31 31.1c9.1 9.1 24 9.1 33.1 0l49.7-49.7c9.1-9.1 9.1-24 0-33.1l-30.4-30.4v-66.3l80 80.1c18.4 18.3 18.4 48 0.1 66.3z"  horiz-adv-x="1024" />

    
    <glyph glyph-name="icon-test3" unicode="&#59233;" d="M410.305057 204.88186399999995c0-23.235144 18.852332-42.07315 42.087476-42.07315h119.214934c23.248447 0 42.100779 18.838006 42.100779 42.07315v77.423193h77.425239c23.247424 0 42.08543 18.839029 42.08543 42.087476V443.61463c0 23.241284-18.838006 42.080313-42.08543 42.080313h-77.425239v77.417053c0 23.241284-18.852332 42.080313-42.100779 42.080313h-119.214934c-23.235144 0-42.087477-18.838006-42.087476-42.080313v-77.417053h-77.40989c-23.248447 0-42.086453-18.839029-42.086453-42.080313V324.39253299999996c0-23.248447 18.838006-42.087477 42.086453-42.087476h77.40989v-77.423193zM332.895167 324.39253299999996V443.61463H452.392533V563.1109730000001h119.214934v-119.497366h119.526018V324.39253299999996H571.607467v-119.510669h-119.214934V324.39253299999996H332.895167zM321.398345 79.001127c-105.802486 66.27941-168.981285 180.294935-168.981285 304.998873 0 198.273366 161.30241 359.597266 359.58908 359.597266 49.541224 0 97.50349-9.876932 142.549338-29.35655 10.680225-4.628405 23.050949 0.295735 27.672191 10.961634 4.622265 10.659759-0.295735 23.059136-10.961634 27.666051-50.343494 21.755446-103.928816 32.802015-159.259895 32.802015-221.493161 0-401.66223-180.189535-401.66223-401.669393 0-139.287045 70.534309-266.646456 188.706496-340.661022a20.9235 20.9235 0 0 1 11.159132-3.225455 21.021737 21.021737 0 0 1 17.838238 9.890235c6.172571 9.833953 3.198849 22.825822-6.649431 28.996346zM883.50341 537.016717c-4.423744 10.750833-16.753536 15.858144-27.462414 11.4344-10.74981-4.423744-15.879634-16.71772-11.454867-27.46139 17.936475-43.474054 27.011136-89.569813 27.011137-136.989727 0-198.266203-161.303434-359.58294-359.591126-359.58294-36.872719 0-73.196946 5.537099-107.971891 16.456778-11.032242 3.494584-22.895407-2.663661-26.389991-13.752185-3.479234-11.10285 2.69129-22.909733 13.765487-26.374641 38.860999-12.216205 79.440125-18.402079 120.596395-18.402079 221.494184 0 401.676556 180.182372 401.676556 401.65609 0 52.941664-10.157317 104.440468-30.179286 153.015694zM730.091698 669.934716a361.216133 361.216133 0 0 0 75.479937-78.247975c4.10038-5.798041 10.580965-8.87614 17.175137-8.87614a20.885638 20.885638 0 0 1 12.145597 3.867066c9.496263 6.721062 11.737299 19.852101 5.016237 29.33506a402.514642 402.514642 0 0 1-84.27319 87.364592c-9.22918 7.073078-22.446177 5.276156-29.489579-3.94586-7.059775-9.23532-5.282296-22.452316 3.945861-29.496743zM512.00614 889.020042C233.532334 889.020042 6.979958 662.473806 6.979958 384c0-278.480969 226.5534-505.020042 505.026182-505.020042 278.474829 0 505.013903 226.539073 505.013902 505.020042 0 278.473806-226.539073 505.020042-505.013902 505.020042z m0-946.916544c-243.671232 0-441.903666 198.232434-441.903666 441.896502 0 243.664068 198.232434 441.896502 441.903666 441.896502 243.673278 0 441.890363-198.232434 441.890362-441.896502 0-243.665092-198.217084-441.896502-441.890362-441.896502z"  horiz-adv-x="1024" />

    
    <glyph glyph-name="bianji4" unicode="&#59215;" d="M237.29 348.231l351.217 351.217 150.541-150.542L387.832 197.69zM839.4 649.3c27.9 27.9 27.9 72.5 0 100.4l-50.2 50.2c-27.9 27.9-72.5 27.9-100.4 0l-50.2-50.2 150.5-150.5 50.3 50.1zM332 142h5.6L181.5 298.1v-5.6c-11.2-16.7-16.7-33.5-16.7-50.2L109 69.5l172.8 55.8c16.8-0.1 33.5 5.5 50.2 16.7zM919.2 23.5H104.1c-20.4 0-36.9-16.5-36.9-36.9s16.5-36.9 36.9-36.9h815.1c20.4 0 36.9 16.5 36.9 36.9s-16.6 36.9-36.9 36.9z"  horiz-adv-x="1024" />

    
    <glyph glyph-name="bianji5" unicode="&#59494;" d="M870.346248 25.576963H153.653752V742.26946h412.098185l102.384643 102.384642H51.26911v-921.461781h921.46178V540.059791l-102.384642-102.384642V25.576963zM300.06379 171.987002l180.708894 35.834625 398.276259 398.276258-144.874269 144.874269-397.764336-398.276258-36.346548-180.708894zM770.367645 787.472279l108.630105 108.527721 144.771885-144.771884-108.578914-108.527721z"  horiz-adv-x="1024" />

    
    <glyph glyph-name="tianjia" unicode="&#59216;" d="M556.8 800v-358.4h371.2v-89.6H556.8v-384H467.2v384H96V441.6h371.2V800z"  horiz-adv-x="1024" />

    
    <glyph glyph-name="shanchu5" unicode="&#59249;" d="M516.606 788.07c-82.644 0-149.719-65.518-152.573-147.772H171.371c-21.406 0-38.92-17.385-38.92-38.921 0-21.407 17.385-38.922 38.921-38.922h42.943v-435.402c0-81.735 55.399-148.55 123.901-148.55h348.995c68.373 0 123.9 66.426 123.9 148.55V562.195h38.922c21.407 0 38.921 17.386 38.921 38.922 0 21.407-17.385 38.922-38.92 38.922H668.918c-2.466 82.512-69.67 148.03-152.313 148.03z m-79.66-147.772c2.855 42.165 37.236 74.858 79.79 74.858s76.934-32.823 79.4-74.858h-159.19z m-98.86-589.012c-24.261 0-50.987 31.138-50.987 75.767V562.195h450.97v-435.53c0-44.5-26.726-75.768-50.988-75.768H338.086v0.39z m0 0M390.37 144.827c17.774 0 32.435 17.774 32.435 40.09V413.644c0 22.315-14.531 40.09-32.434 40.09-17.775 0-32.435-17.775-32.435-40.09v-228.729c0-22.184 14.27-40.089 32.435-40.089z m117.414 0c17.774 0 32.434 17.774 32.434 40.09V413.644c0 22.315-14.531 40.09-32.434 40.09-17.774 0-32.435-17.775-32.435-40.09v-228.729c0-22.184 14.66-40.089 32.435-40.089z m123.51 0c17.774 0 32.435 17.774 32.435 40.09V413.644c0 22.315-14.53 40.09-32.435 40.09-17.774 0-32.434-17.775-32.434-40.09v-228.729c0-22.184 14.141-40.089 32.434-40.089z m0 0"  horiz-adv-x="1024" />

    
    <glyph glyph-name="xianpaizhao" unicode="&#59197;" d="M899.856074-45.576643 123.287419-45.576643c-31.780821 0-57.522088 27.592428-57.522088 61.625546L65.765331 493.526645c0 34.011628 25.742291 61.617359 57.522088 61.617359l176.717817 0c14.286378 10.69355 29.441543 28.754904 46.202275 57.896618 24.774243 43.040259 45.809325 37.754882 45.809325 37.754882l205.777667 0c0 0 63.917752-1.143033 81.644485-38.176484 14.611789-30.516014 30.503734-47.719838 43.904952-57.475016l176.511109 0 0 0.007163c31.782867 0 57.537438-27.598568 57.537438-61.61122L957.392488 16.048903C957.393511-17.984215 931.638941-45.576643 899.856074-45.576643zM511.470439 473.057451c-111.834065 0-202.485691-91.739401-202.485691-204.88432 0-113.155153 90.650603-204.882274 202.485691-204.882274 111.820762 0 202.498994 91.727121 202.498994 204.882274C713.969433 381.31805 623.292224 473.057451 511.470439 473.057451zM801.845853 500.62225c-18.611893 0-33.712823-15.312754-33.712823-34.217313 0-18.897396 15.101953-34.202986 33.712823-34.202986 18.640546 0 33.741475 15.305591 33.741475 34.202986C835.587328 485.309496 820.486398 500.62225 801.845853 500.62225zM511.579933 104.50963c-89.479941 0-162.024164 73.366961-162.024164 163.868161 0 90.506317 72.544223 163.878394 162.024164 163.878394 89.481987 0 162.02314-73.373101 162.02314-163.878394C673.603073 177.876592 601.06192 104.50963 511.579933 104.50963zM149.356145 637.081155l97.522104 0 0-41.794895-97.522104 0L149.356145 637.081155z"  horiz-adv-x="1024" />

    
    <glyph glyph-name="paizhao" unicode="&#59198;" d="M873.645 650.086c-23.515 0-42.755-19.239-42.755-41.686 0-23.515 19.239-42.755 42.755-42.755 23.515 0 42.755 19.239 42.755 42.755 0 22.446-19.239 41.686-42.755 41.686zM942.052-44.667h-767.436c-75.888 0-112.229 36.341-112.229 109.023v524.806c0 35.272 12.826 67.338 39.548 94.058 25.653 26.722 59.856 36.341 94.058 36.341h25.653c11.757 0 24.584 7.482 35.273 13.896 10.688 7.482 19.239 20.308 24.584 30.997l29.928 60.925c5.345 10.688 13.896 18.171 24.584 24.584 10.688 7.482 23.515 5.345 35.273 5.345h371.961c11.757 0 23.515 1.069 35.272-5.345 10.688-7.482 19.239-11.757 24.584-23.515l29.928-61.994c5.345-11.757 12.826-23.515 24.584-29.928 10.688-7.482 22.446-14.964 35.273-14.964h24.584c34.204 0 68.407-9.62 95.127-36.341 25.653-26.722 38.479-58.787 38.479-94.058v-524.806c0-72.683-33.135-109.023-109.023-109.023zM559.403 650.086c-163.535 0-297.141-130.4-297.141-290.727 0-161.396 133.606-290.727 297.141-290.727 164.603 0 297.141 129.331 297.141 290.727 0 160.327-132.537 290.727-297.141 290.727zM559.403 128.487c-129.331 0-235.147 103.678-235.147 230.872s105.816 229.803 235.147 229.803c130.4 0 236.216-102.609 236.216-229.803 0-127.193-105.816-230.872-236.216-230.872z"  horiz-adv-x="1126" />

    
    <glyph glyph-name="paizhao1" unicode="&#59199;" d="M597.17 547.79c-91.474 0-165.634-74.622-165.634-166.679s74.16-165.415 165.634-165.415 163.861 73.359 163.861 165.415-72.386 166.678-163.86 166.678Zm335.761 182.85H798.114c-35.89 45.982-77.59 99.245-78.172 99.245h-294.04c-0.69 0-42.837-53.264-79.094-99.244H91.088c-49.173 0-89.021-39.849-89.021-89.022v-519.073c0-49.173 39.848-89.02 89.021-89.02h841.843c49.173 0 89.022 39.847 89.022 89.02V641.62c0 49.173-39.85 89.022-89.022 89.022ZM225.86 505.198c-28 0-50.68 22.68-50.68 50.654 0 27.999 22.68 50.68 50.68 50.68 27.973 0 50.653-22.681 50.653-50.68 0-27.973-22.68-50.654-50.653-50.654Zm374.103-346.64c-123.115 0-226.61 100.435-226.61 224.303 0 123.89 103.495 224.302 226.61 224.302 123.09 0 221.655-100.411 221.655-224.302 0-123.867-98.565-224.303-221.655-224.303Z"  horiz-adv-x="1024" />

    
    <glyph glyph-name="paizhao2" unicode="&#59200;" d="M814.8 625.6h-98.5l-31.7 70.3c0.3-0.8 0.4-1.7 0.8-2.6-5.6 14.2-19.3 24.2-35.5 25.7H369.8c-14.8-1.4-27.4-10-33.6-22.4l-31.9-70.9h-98.5c-38.8 0-70.3-31.2-70.3-69.6v-404.3c0-38.4 31.4-69.6 70.3-69.6h609.1c38.8 0 70.3 31.2 70.3 69.6V556c-0.2 38.5-31.6 69.6-70.4 69.6zM510.2 232.2c-72.5 0-131.1 58.7-131.1 131.1s58.8 131.1 131.1 131.1c72.5 0 131.2-58.7 131.2-131.1s-58.7-131.1-131.2-131.1z"  horiz-adv-x="1024" />

    
    <glyph glyph-name="quanping" unicode="&#59201;" d="M909-63H780a30 30 0 0 0 0 60h99a20 20 0 0 1 20 20v99a30 30 0 0 0 60 0v-129a50 50 0 0 0-50-50z m20 685a30 30 0 0 0-30 30v99a20 20 0 0 1-20 20h-99a30 30 0 0 0 0 60h129a50 50 0 0 0 50-50v-129a30 30 0 0 0-30-30z m-157-28v-420a50 50 0 0 0-50-50H302a50 50 0 0 0-50 50V594a50 50 0 0 0 50 50h420a50 50 0 0 0 50-50z m-60-30a20 20 0 0 1-20 20H332a20 20 0 0 1-20-20v-360a20 20 0 0 1 20-20h360a20 20 0 0 1 20 20V564zM244 771h-99a20 20 0 0 1-20-20v-99a30 30 0 0 0-60 0V781a50 50 0 0 0 50 50h129a30 30 0 0 0 0-60zM95 146a30 30 0 0 0 30-30v-99a20 20 0 0 1 20-20h99a30 30 0 0 0 0-60H115a50 50 0 0 0-50 50V116a30 30 0 0 0 30 30z"  horiz-adv-x="1024" />

    
    <glyph glyph-name="paizhao-" unicode="&#59202;" d="M392.8 754l-72.9-82.2H193.6c-43.8 0-79.6-37-79.6-82.2v-493c0-45.2 35.8-82.2 79.6-82.2h637.2c43.8 0 79.6 37 79.6 82.2v493c0 45.2-35.8 82.2-79.6 82.2H704.6L631.7 754H392.8z m119.4-616.3c-109.9 0-199.1 92-199.1 205.4s89.2 205.4 199.1 205.4 199.1-92 199.1-205.4-89.2-205.4-199.1-205.4z m0 74c70.4 0 127.4 58.9 127.4 131.5s-57.1 131.5-127.4 131.5-127.4-58.9-127.4-131.5 57-131.5 127.4-131.5z"  horiz-adv-x="1024" />

    
    <glyph glyph-name="quanping1" unicode="&#59203;" d="M0-25.59115V793.605599C0 850.161843 45.8508 896 102.405238 896h819.196749c56.556244 0 102.394401-45.838157 102.394401-102.394401v-819.198555c0-56.556244-45.838157-102.407044-102.394401-102.407044H102.405238C45.8508-127.998194 0-82.147394 0-25.59115zM921.601987 819.203296H102.405238c-18.109124 0-25.610341-7.49941-25.610341-25.597697v-819.198555c0-18.109124 7.501216-25.610341 25.610341-25.61034h844.796252V793.605599c0 18.098287-7.49941 25.597697-25.599503 25.597697zM153.602438 691.200361v-127.993904c0-21.215816 17.187954-38.401964 38.403771-38.401964 21.204979 0 38.392933 17.187954 38.392933 38.401964v102.394401h102.403432c21.204979 0 38.40377 17.196985 38.40377 38.40377s-17.198791 38.392933-38.40377 38.392934h-128.002935c-28.278122 0-51.1972-22.919078-51.197201-51.197201zM870.395755 691.200361v-127.993904c0-21.215816-17.187954-38.401964-38.392933-38.401964s-38.40377 17.187954-38.40377 38.401964v102.394401h-102.392595c-21.215816 0-38.40377 17.196985-38.40377 38.40377s17.187954 38.392933 38.40377 38.392934h127.992098c28.278122 0 51.1972-22.919078 51.1972-51.197201zM153.602438 76.801445v128.006548c0 21.203173 17.187954 38.401964 38.403771 38.401964 21.204979 0 38.392933-17.198791 38.392933-38.401964v-102.407045h102.403432c21.204979 0 38.40377-17.187954 38.40377-38.392933 0-21.215816-17.198791-38.40377-38.40377-38.40377h-128.002935c-28.278122 0-51.1972 22.920885-51.197201 51.1972zM819.196749 25.604245h-127.992098c-21.215816 0-38.40377 17.187954-38.40377 38.40377 0 21.204979 17.187954 38.392933 38.40377 38.392933h102.392595v102.407045c0 21.203173 17.196985 38.401964 38.40377 38.401964s38.392933-17.198791 38.392933-38.401964v-128.006548c0.001806-28.276316-22.917272-51.1972-51.1972-51.1972z"  horiz-adv-x="1024" />

    
    <glyph glyph-name="paizhaomian" unicode="&#59204;" d="M864 647.978667c44.202667 0 80-35.797333 80-80v-455.978667c0-44.202667-35.84-80-80-80H160a79.957333 79.957333 0 0 0-80 80V568.021333c0 44.16 35.84 80 80 80h136.021333l32.469334 90.794667a31.957333 31.957333 0 0 0 30.122666 21.205333h306.773334c13.653333 0 25.6-8.533333 30.208-21.205333l32.426666-90.794667h135.978667zM512 512a159.957333 159.957333 0 0 1-160-160A159.957333 159.957333 0 0 1 512 192a159.957333 159.957333 0 0 1 160 160A159.957333 159.957333 0 0 1 512 512z"  horiz-adv-x="1024" />

    
    <glyph glyph-name="yipaizhaozongjie-solid" unicode="&#59207;" d="M973.525333 213.333333L1024 161.877333 739.541333-128 597.333333 16.938667l50.133334 51.072 91.733333-93.866667L973.525333 213.333333zM640 768l78.08-85.333333H853.333333c44.8 0 81.834667-34.986667 85.077334-78.976L938.666667 597.333333v-328.064l-199.424-203.562666-91.690667 93.781333-139.904-142.549333 16.682667-16.938667H170.666667c-44.8 0-81.834667 34.986667-85.077334 78.976L85.333333 85.333333V597.333333c0 44.8 34.986667 81.834667 78.976 85.077334L170.666667 682.666667h135.253333L384 768h256z m-128-213.333333c-117.76 0-213.333333-95.573333-213.333333-213.333334s95.573333-213.333333 213.333333-213.333333 213.333333 95.573333 213.333333 213.333333-95.573333 213.333333-213.333333 213.333334z m0-85.333334c70.4 0 128-57.6 128-128s-57.6-128-128-128-128 57.6-128 128 57.6 128 128 128z"  horiz-adv-x="1024" />

    
    <glyph glyph-name="weipaizhaozongjie-solid" unicode="&#59208;" d="M978.829796 215.464003l45.170204-45.170204L897.480816 43.732002l126.561797-126.561798-45.212817-45.170204L852.267998-1.480816l-126.561797-126.561797-45.170204 45.212817L807.055181 43.732002l-126.561798 126.561797 45.212818 45.170204L852.267998 88.944819l126.561798 126.561798zM639.200999 768.1598l77.982522-85.2268H852.267998c44.74407 0 81.732501-34.942988 84.97112-78.877403L937.494798 597.706201v-333.108948l-85.2268-85.269413-126.561797 126.561798-5.326675-5.454515A213.152226 213.152226 0 0 1 511.360799 555.092801c-117.612984 0-213.067-95.454016-213.067-213.067a213.152226 213.152226 0 0 1 309.884645-189.842697L716.67216 43.732002l-42.6134-42.6134H170.4536c-44.74407 0-81.732501 34.942988-84.97112 78.877403L85.2268 86.345402V597.706201c0 44.74407 34.942988 81.732501 78.877403 84.971119L170.4536 682.933h135.084477L383.520599 768.1598h255.6804z m-127.8402-298.293799c70.31211 0 127.8402-57.52809 127.8402-127.8402s-57.52809-127.8402-127.8402-127.8402-127.8402 57.52809-127.8402 127.8402 57.52809 127.8402 127.8402 127.8402z"  horiz-adv-x="1025" />

    
    <glyph glyph-name="daochu" unicode="&#59161;" d="M839.488 450.88l0.192 0L525.696 783.488c-8.128 8.128-21.44 8.128-29.568 0L184.768 451.072C182.144 449.024 180.48 446.464 180.48 443.584c0-6.848 8.96-12.288 20.224-12.288 0 0 0.064 0 0.192 0l0 0 156.928 0c11.84-6.72 27.008-19.456 32.384-42.24l0-129.664c0-23.168 18.816-41.856 41.92-41.856l159.744 0c23.104 0 41.856 18.688 41.856 41.856L633.728 394.496c4.032 8.704 13.632 26.112 29.632 36.8l166.144 0 0 0.64c8.256 1.6 14.144 6.144 14.144 11.648C843.648 446.336 842.112 448.832 839.488 450.88zM390.272 174.272l0-17.92c0-23.04 18.816-41.856 41.92-41.856l159.808 0c23.168 0 41.92 18.816 41.92 41.856l0 17.92L390.272 174.272zM960 174.272c-0.256 11.968-11.264 21.568-24.832 21.568-13.696 0-24.768-9.6-24.832-21.568l-0.832 0 0-102.976c0-28.864-23.36-52.288-52.224-52.288L166.08 19.008c-28.864 0-52.288 23.424-52.288 52.288l0 102.976L113.664 174.272c-0.064 11.968-11.136 21.568-24.832 21.568-13.568 0-24.576-9.6-24.832-21.568l0 0 0-91.2c0-57.856 46.656-104.704 104.256-104.704l687.488 0c57.536 0 104.256 46.784 104.256 104.704L960 174.272 960 174.272z"  horiz-adv-x="1024" />

    
    <glyph glyph-name="tubiao05" unicode="&#59162;" d="M831.999095-65.537463l-639.994116 0c-105.879408 0-192.004989 87.454919-192.004989 194.967602L-1.0e-05 519.374554c0 35.923864 28.629387 64.991248 64.00678 64.991248 35.370229 0 63.993476-29.067384 63.993476-64.991248l0-389.945438c0-35.795945 28.688742-64.985107 64.004733-64.985107l639.994116 0c35.313944 0 64.00064 29.189163 64.00064 64.985107L895.999734 519.374554c0 35.923864 28.627341 64.991248 63.993476 64.991248 35.382509 0 64.00678-29.067384 64.00678-64.991248l0-389.945438C1024.001014 21.917456 937.872363-65.537463 831.999095-65.537463zM534.623306 821.349302c-12.43172 12.633321-32.812864 12.633321-45.245607 0l-210.747741-214.011221c-12.432743-12.626158-8.249267-22.972279 9.375981-22.972279l63.995523 0c17.628318 0 32.007483-14.60021 32.007483-32.492554l0-129.985565c0-17.897461 14.368932-32.4946 31.99725-32.4946l191.990662 0c17.630365 0 32.007483 14.59714 32.007483 32.4946L640.00434 551.873248c0 17.892344 14.369955 32.492554 32.00032 32.492554l63.990406 0c17.629342 0 21.822028 10.346122 9.374958 22.972279L534.623306 821.349302zM640.00434 291.906211c0-17.895414-14.31367-32.492554-32.007483-32.492554-17.685626 0-31.996226 14.59714-31.996226 32.492554 0 18.026403 14.309577 32.496647 31.996226 32.496647C625.690669 324.402858 640.00434 309.932614 640.00434 291.906211zM448.000374 291.906211c0-17.895414-14.308554-32.492554-31.995203-32.492554-17.687673 0-31.99725 14.59714-31.99725 32.492554 0 18.026403 14.308554 32.496647 31.99725 32.496647C433.69182 324.402858 448.000374 309.932614 448.000374 291.906211zM416.005171 324.402858l191.990662 0 0-64.989201-191.990662 0 0 64.989201Z"  horiz-adv-x="1025" />

    
    <glyph glyph-name="daochubiaoge" unicode="&#59163;" d="M161.482667 772.416 122.464 772.416 55.306667 772.416l0-82.794667 67.157333 0 39.018667 0c19.754667 0 35.776 16.021333 35.776 35.776L197.258667 736.64C197.258667 756.416 181.237333 772.416 161.482667 772.416zM161.482667 590.805333 122.464 590.805333 55.306667 590.805333l0-82.794667 67.157333 0 39.018667 0c19.754667 0 35.776 16.021333 35.776 35.776l0 11.264C197.258667 574.784 181.237333 590.805333 161.482667 590.805333zM161.482667 409.194667 122.464 409.194667 55.306667 409.194667l0-82.816 67.157333 0 39.018667 0c19.754667 0 35.776 16.064 35.776 35.797333l0 11.285333C197.258667 393.173333 181.237333 409.194667 161.482667 409.194667zM161.482667 227.605333 122.464 227.605333 55.306667 227.605333l0-82.794667 67.157333 0 39.018667 0c19.754667 0 35.776 15.978667 35.776 35.754667l0 11.242667C197.258667 211.584 181.237333 227.605333 161.482667 227.605333zM161.482667 45.973333 122.464 45.973333 55.306667 45.973333l0-82.816 67.157333 0 39.018667 0c19.754667 0 35.776 16.021333 35.776 35.776l0 11.242667C197.258667 29.952 181.237333 45.973333 161.482667 45.973333zM880.949333 896 210.229333 896C161.824 896 122.613333 856.810667 122.485333 808.426667l38.997333 0c39.573333 0 71.786667-32.192 71.786667-71.786667l0-11.242667c0-39.594667-32.213333-71.786667-71.786667-71.786667L122.464 653.610667l0-26.794667 39.018667 0c39.573333 0 71.786667-32.192 71.786667-71.765333l0-11.264c0-39.573333-32.213333-71.786667-71.786667-71.786667L122.464 472l0-26.794667 39.018667 0c39.573333 0 71.786667-32.213333 71.786667-71.765333l0-11.285333c0-39.573333-32.213333-71.744-71.786667-71.744L122.464 290.410667l0-26.837333 39.018667 0c39.573333 0 71.786667-32.192 71.786667-71.765333l0-11.242667c0-39.552-32.213333-71.765333-71.786667-71.765333L122.464 108.8l0-26.794667 39.018667 0c39.573333 0 71.786667-32.234667 71.786667-71.808l0-11.242667c0-39.552-32.213333-71.744-71.786667-71.744L129.546667-72.789333c13.418667-31.317333 44.458667-53.312 80.661333-53.312l670.72 0c48.448 0 87.744 39.296 87.744 87.765333L968.672 808.213333C968.693333 856.704 929.418667 896 880.949333 896zM839.882667 506.624 273.461333 506.624l0 82.517333 566.442667 0L839.904 506.624zM839.882667 676.032 273.461333 676.032 273.461333 758.549333l566.442667 0L839.904 676.032z"  horiz-adv-x="1024" />

    
    <glyph glyph-name="17_daorudaochu" unicode="&#59164;" d="M816.163 205.849H511.751c-10.862 0-19.707-8.73-19.862-19.602l-1.277-89.871-261.764 200.793c-15.07 11.558-6.905 35.665 12.079 35.665h575.236c10.97 0 19.862-8.902 19.862-19.883v-87.222c0-10.979-8.892-19.88-19.862-19.88zM490.612 96.373v0.003l0.003-0.003h-0.003z m304.224 336.792H206.527c-9.142 0-16.555 7.419-16.555 16.571v93.848c0 9.149 7.413 16.566 16.555 16.566h313.93c9.255 0 16.714 7.596 16.548 16.862l-1.62 92.618 269.517-206.742c12.558-9.634 5.752-29.723-10.066-29.723z"  horiz-adv-x="1024" />

    
    <glyph glyph-name="daoru" unicode="&#59165;" d="M66.688 66.688H960V-64H66.688zM833.92 725.12v-598.4H235.52L422.4 313.6 296.32 439.68l231.68 231.68 126.72-126.08zM470.464 729.472c16.896-16.896 14.144-46.976-6.144-67.264L303.36 501.248c-20.288-20.224-50.368-22.976-67.264-6.144-16.896 16.896-14.144 47.04 6.08 67.264L403.2 723.392c20.224 20.224 50.368 22.976 67.264 6.08zM370.752 824.32c16.896-16.832 14.144-46.976-6.144-67.2L203.648 596.096c-20.288-20.224-50.368-22.976-67.264-6.08-16.832 16.896-14.144 46.976 6.144 67.264l160.96 160.96c20.288 20.288 50.368 23.04 67.264 6.08zM833.92 126.72"  horiz-adv-x="1024" />

    
    <glyph glyph-name="daochu1" unicode="&#59166;" d="M208-64c-43.2 0-80 33.6-80 72v752C128 798.4 164.8 832 208 832h364.8c17.6 0 35.2-8 48-20.8 12.8-12.8 19.2-30.4 19.2-48V496c0-9.6-6.4-16-16-16s-16 6.4-16 16V760v3.2c0 9.6-3.2 19.2-9.6 25.6-6.4 8-16 11.2-25.6 11.2H208c-24 0-48-19.2-48-40v-752c0-20.8 24-40 48-40h363.2c22.4 1.6 40 20.8 36.8 43.2V304c0 9.6 6.4 16 16 16s16-6.4 16-16v-291.2c3.2-38.4-27.2-73.6-67.2-76.8H208zM624 656H160c-9.6 0-16 6.4-16 16s6.4 16 16 16h464c9.6 0 16-6.4 16-16s-6.4-16-16-16zM608 64H160c-9.6 0-16 6.4-16 16s6.4 16 16 16h448c9.6 0 16-6.4 16-16s-6.4-16-16-16zM352 32h80v-32h-80zM352 768h144v-32h-144zM288 768h32v-32h-32zM880 384H400c-9.6 0-16 6.4-16 16s6.4 16 16 16h480c9.6 0 16-6.4 16-16s-6.4-16-16-16zM742.4 248c-4.8 0-8 1.6-11.2 4.8-6.4 6.4-6.4 16 0 22.4l121.6 121.6-121.6 121.6c-6.4 6.4-6.4 16 0 22.4s16 6.4 22.4 0l132.8-132.8c6.4-6.4 6.4-16 0-22.4l-132.8-132.8c-3.2-3.2-8-4.8-11.2-4.8z"  horiz-adv-x="1024" />

    
    <glyph glyph-name="dianpudaochu" unicode="&#59167;" d="M273.532 443.813c28.321-34.458 71.253-56.47 119.234-56.47S483.68 409.355 512 443.813c28.32-34.458 71.253-56.47 119.233-56.47s90.914 22.012 119.234 56.47c28.32-34.458 71.253-56.47 119.233-56.47 85.077 0 154.293 69.215 154.293 154.292 0 4.319-0.799 8.602-2.354 12.631L898.321 873.572A35.057 35.057 0 0 1 865.617 896H158.271a35.057 35.057 0 0 1-32.708-22.438L2.357 554.256a35.05 35.05 0 0 1-2.351-12.621c0-85.077 69.215-154.292 154.292-154.292 47.981 0.001 90.914 22.012 119.234 56.47zM70.333 535.652L182.321 825.883h659.254l112.092-290.236c-3.083-43.629-39.565-78.187-83.966-78.187-46.414 0-84.175 37.761-84.175 84.175 0 19.362-15.696 35.059-35.059 35.059s-35.059-15.696-35.059-35.059c0-46.415-37.761-84.175-84.176-84.175-46.414 0-84.175 37.761-84.175 84.175 0 19.362-15.696 35.059-35.059 35.059s-35.058-15.696-35.058-35.059c0-46.415-37.761-84.175-84.176-84.175s-84.175 37.761-84.175 84.175c0 19.362-15.696 35.059-35.059 35.059s-35.058-15.696-35.058-35.059c0-46.415-37.761-84.175-84.176-84.175-44.401 0-80.884 34.559-83.963 78.192zM608.453 18.297h276.216l-83.333-83.333c-10.185-10.184-10.185-26.697 0-36.883l18.44-18.441c10.187-10.187 26.699-10.187 36.886 0l157.643 157.642c6.474 6.476 9.695 14.928 9.695 23.845 0 8.255-3.223 17.368-9.697 23.843L856.661 242.61c-10.187 10.186-26.699 10.187-36.885 0l-18.44-18.44c-10.185-10.188-10.185-26.7 0-36.886l83.331-83.331H608.453c-13.517 0-24.474-10.957-24.474-24.474V42.77c0-13.516 10.958-24.473 24.474-24.473zM202.803-58V265.914c0 19.33-15.67 35-35 35s-35-15.67-35-35V-93c0-19.33 15.67-35 35-35H583.98v70H202.803z"  horiz-adv-x="1024" />

    
    <glyph glyph-name="dianpudaoru" unicode="&#59168;" d="M273.532 443.813c28.321-34.458 71.253-56.47 119.234-56.47S483.68 409.355 512 443.813c28.32-34.458 71.253-56.47 119.233-56.47s90.914 22.012 119.234 56.47c28.32-34.458 71.253-56.47 119.233-56.47 85.077 0 154.293 69.215 154.293 154.292 0 4.319-0.799 8.602-2.354 12.631L898.321 873.572A35.057 35.057 0 0 1 865.617 896H158.271a35.057 35.057 0 0 1-32.708-22.438L2.357 554.256a35.05 35.05 0 0 1-2.351-12.621c0-85.077 69.215-154.292 154.292-154.292 47.981 0.001 90.914 22.012 119.234 56.47zM70.333 535.652L182.321 825.883h659.254l112.092-290.236c-3.083-43.629-39.565-78.187-83.966-78.187-46.414 0-84.175 37.761-84.175 84.175 0 19.362-15.696 35.059-35.059 35.059s-35.059-15.696-35.059-35.059c0-46.415-37.761-84.175-84.176-84.175-46.414 0-84.175 37.761-84.175 84.175 0 19.362-15.696 35.059-35.059 35.059s-35.058-15.696-35.058-35.059c0-46.415-37.761-84.175-84.176-84.175s-84.175 37.761-84.175 84.175c0 19.362-15.696 35.059-35.059 35.059s-35.058-15.696-35.058-35.059c0-46.415-37.761-84.175-84.176-84.175-44.401 0-80.884 34.559-83.963 78.192zM999.526 103.953H723.311l83.333 83.333c10.185 10.184 10.185 26.697 0 36.883l-18.44 18.441c-10.187 10.187-26.699 10.187-36.886 0L593.675 84.969c-6.474-6.476-9.695-14.928-9.695-23.845 0-8.255 3.223-17.368 9.697-23.843l157.642-157.642c10.187-10.186 26.699-10.187 36.885 0l18.44 18.44c10.185 10.188 10.185 26.7 0 36.886l-83.331 83.331h276.214c13.517 0 24.474 10.957 24.474 24.474V79.479c-0.001 13.517-10.958 24.474-24.475 24.474zM202.803-58V265.914c0 19.33-15.67 35-35 35s-35-15.67-35-35V-93c0-19.33 15.67-35 35-35H583.98v70H202.803z"  horiz-adv-x="1024" />

    
    <glyph glyph-name="daochutupian" unicode="&#59172;" d="M459.6 380.3c0 33.2-26.9 60.1-60.1 60.1s-60.2-26.9-60.2-60.1 26.9-60.1 60.2-60.1c33.1-0.1 60.1 26.8 60.1 60.1zM585.2 119.9c15.7 98.2 94.8 175.1 194 187.5l-10 32.5-50.8-16.9-44.1 83L532 200.6l-76.2 49.2-119.5-129.9h248.9zM259.7 67V498c0 7.7 6.2 13.9 13.9 13.9h607.1c7.7 0 13.9-6.2 13.9-13.9v-206.4c23.5-9.9 44.9-23.6 63.6-40.4V544.1c0 17.4-14.1 31.4-31.4 31.4h-134l-79.3 206.2c-6.2 16.2-24.4 24.3-40.6 18.1L20.2 548.9C4 542.6-4.1 524.4 2.1 508.2l194-504.5v-0.3h401.2c-7.7 20-12.6 41.3-14.3 63.6H259.7z m400.7 660c2.1 0.3 5.5 0.2 7.3-3.8l56.8-147.6H266.6L660.4 727zM196.1 180.9L77.9 488.1c-2.7 7.1 0.8 15.2 8 17.9l110.2 42.4v-367.5zM1022.5 96L871 217.5c-2.3 1.7-5.5 0.1-5.5-2.8v-75.1H670c-5.3 0-9.7-4.3-9.7-9.6v-75.7c0-5.3 4.3-9.7 9.7-9.7h195.5v-75.1c0-2.8 3.3-4.5 5.5-2.8l151.5 121.5c2.6 2 2.6 5.9 0 7.8z"  horiz-adv-x="1024" />

    
    <glyph glyph-name="daochu2" unicode="&#59174;" d="M946.4 591c-34.1 0-61.7-28-61.7-62.6v-375.8c0-34.5-27.6-62.6-61.7-62.6H206.2c-34 0-61.7 28.1-61.7 62.6V528.4c0 34.6-27.6 62.6-61.7 62.6s-61.7-28-61.7-62.6v-375.8c0-103.6 83-187.9 185.1-187.9h616.9c102 0 185.1 84.3 185.1 187.9V528.4c-0.1 34.6-27.7 62.6-61.8 62.6zM298.7 591h61.7c17 0 30.8-14.1 30.8-31.3v-125.3c0-17.3 13.9-31.3 30.8-31.3h185c17 0 30.9 14.1 30.9 31.3V559.7c0 17.2 13.9 31.3 30.8 31.3h61.7c17 0 21 10 9 22.1l-203 206.3c-12 12.2-31.6 12.2-43.6 0L289.7 613.1c-12-12.1-7.9-22.1 9-22.1zM422.1 340.4c-17.1 0-30.8-13.9-30.8-31.3 0-17.2 13.8-31.3 30.8-31.3h185.1c17.1 0 30.8 14.1 30.8 31.3 0 17.4-13.8 31.3-30.8 31.3H422.1z"  horiz-adv-x="1024" />

    
    <glyph glyph-name="piliangdaochu" unicode="&#59175;" d="M537.134545 528.523636h93.09091v-93.090909h-93.09091zM281.134545 528.523636h93.09091v-93.090909h-93.09091zM676.770909 388.887273h-186.181818v186.181818h100.538182a370.036364 370.036364 0 0 1-202.705455 69.818182h-28.625454a372.363636 372.363636 0 1 1 316.974545-155.229091z m-442.181818 186.181818h186.181818v-186.181818h-186.181818z m418.909091-372.363636h-256v-93.09091l-162.909091 116.363637 162.909091 116.363636v-93.090909h256zM420.770909 644.654545v186.181819h-186.181818v-186.181819h186.181818z m-139.636364 139.636364h93.09091v-93.090909h-93.09091zM676.770909 830.836364h-186.181818v-186.181819h186.181818z m-46.545454-139.636364h-93.09091v93.090909h93.09091zM746.589091 830.836364v-186.181819h186.181818v186.181819z m139.636364-139.636364h-93.09091v93.090909h93.09091zM420.770909 575.069091h-186.181818v-186.181818h186.181818z m-46.545454-139.636364h-93.09091v93.090909h93.09091zM490.589091 388.887273h186.181818v186.181818h-186.181818z m46.545454 139.636363h93.09091v-93.090909h-93.09091zM746.589091 388.887273h186.181818v186.181818h-186.181818z m46.545454 139.636363h93.09091v-93.090909h-93.09091zM746.589091 272.989091v-139.636364h186.181818v186.181818h-186.181818z m46.545454 0h93.09091v-93.090909h-93.09091zM397.498182 341.876364l-162.909091-116.130909 162.909091-116.596364V202.472727h256v46.545455h-256v92.858182z"  horiz-adv-x="1024" />

    
    <glyph glyph-name="liebiaodaochushangchuan_" unicode="&#59176;" d="M98 797.8v-830.1h830.1V797.8H98zM344.8 486l155.8 157.8c6.3 6.4 16.6 6.4 22.9 0.2l0.2-0.2L679.5 486c6.3-6.4 6.2-16.7-0.2-22.9-3-3-7.1-4.6-11.3-4.6h-90.9v-181c0-9-7.3-16.2-16.2-16.2h-96.3c-9 0-16.2 7.3-16.2 16.2v181h-91.9c-9 0-16.2 7.3-16.2 16.2-0.1 4.3 1.5 8.3 4.5 11.3z m423.3-342c0-8.7-7.2-15.8-16-15.8h-480c-8.8 0-16 7.1-16 15.8v32.4c0 8.7 7.2 15.8 16 15.8h480.1c8.8 0 16-7.1 16-15.8V144z"  horiz-adv-x="1024" />

    
    <glyph glyph-name="daochu3" unicode="&#59178;" d="M395.9 490H288.5c-2.8 0-5.7 0.7-8.1 2.4-18.4 13.1-18.2 34.3-6.4 46.3l217.6 220.9c11.1 11.2 29.2 11.4 40.4 0.3l0.3-0.3 217.7-221c11.1-11.3 10.9-29.4-0.4-40.4-5.3-5.2-12.5-8.2-19.9-8.2H628.1v-215.7c0-7.9-6.4-14.3-14.3-14.3H410.2c-7.9 0-14.3 6.4-14.3 14.3V490zM283.3 243.6v-87.5c0-7.9 6.4-14.3 14.3-14.3h428.8c7.9 0 14.3 6.4 14.3 14.3v87.5c0 7.9 6.4 14.3 14.3 14.3h142.9c7.9 0 14.3-6.4 14.3-14.3V-18c0-7.9-6.4-14.3-14.3-14.3H126.1c-7.9 0-14.3 6.4-14.3 14.3V243.6c0 7.9 6.4 14.3 14.3 14.3H269c7.9 0 14.3-6.4 14.3-14.3z"  horiz-adv-x="1024" />

    
    <glyph glyph-name="daoru1" unicode="&#59179;" d="M628.1 538.1h107.4c2.8 0 5.7-0.7 8.1-2.4 18.4-13.1 18.2-34.3 6.4-46.3L532.4 268.5c-11.1-11.2-29.2-11.4-40.4-0.3l-0.3 0.3-217.6 220.9c-11.1 11.3-10.9 29.4 0.4 40.4 5.3 5.2 12.5 8.2 19.9 8.2H396V753.7c0 7.9 6.4 14.3 14.3 14.3h203.5c7.9 0 14.3-6.4 14.3-14.3v-215.6zM283.4 243.6v-87.5c0-7.9 6.4-14.3 14.3-14.3h428.8c7.9 0 14.3 6.4 14.3 14.3v87.5c0 7.9 6.4 14.3 14.3 14.3H898c7.9 0 14.3-6.4 14.3-14.3V-18c0-7.9-6.4-14.3-14.3-14.3H126.2c-7.9 0-14.3 6.4-14.3 14.3V243.6c0 7.9 6.4 14.3 14.3 14.3h142.9c7.9 0 14.3-6.4 14.3-14.3z"  horiz-adv-x="1024" />

    
    <glyph glyph-name="xueyuandaoru" unicode="&#59180;" d="M908.416 742.72c4.928-10.816 7.424-21.76 7.424-32.832v-638.72c0-11.072-2.496-22.016-7.424-32.832-4.992-10.816-11.648-20.416-20.096-28.864a98.8352 98.8352 0 0 0-28.864-20.096c-10.816-4.928-21.76-7.424-32.832-7.424h-638.72c-11.072 0-22.016 2.496-32.832 7.424-10.816 4.992-20.416 11.648-28.864 20.096a98.8352 98.8352 0 0 0-20.096 28.864c-4.992 10.816-7.424 21.696-7.424 32.832v638.72c0 11.072 2.496 22.016 7.424 32.832 4.928 10.816 11.648 20.416 20.096 28.864 8.448 8.448 18.048 15.168 28.864 20.096s21.696 7.424 32.832 7.424h44.608c8.768 0 16.768-2.176 24.064-6.592 7.296-4.352 12.416-9.472 15.296-15.296 5.824-8.768 8.768-17.088 8.768-24.96s-2.944-14.72-8.768-20.544c-2.944-5.824-8-10.944-15.296-15.296a46.1056 46.1056 0 0 0-24.064-6.592c-11.648-0.576-21.888-5.248-30.656-14.016s-13.44-18.944-14.016-30.656v-336c0.576-11.648 5.248-22.016 14.016-31.04 8.768-9.024 18.944-13.888 30.656-14.464h95.36c19.264-3.52 38.912-17.472 59.072-41.984s61.952-38.528 125.568-41.984c64.192 4.096 105.984 19.072 125.568 45.056 19.52 25.92 37.504 40.96 53.824 45.056h90.112c11.648 0.576 21.888 5.248 30.656 14.016s13.44 18.944 14.016 30.656V665.28c-0.576 11.648-5.248 21.888-14.016 30.656s-18.944 13.44-30.656 14.016c-11.648 0.576-22.016 5.248-31.04 14.016-9.024 8.768-13.568 18.944-13.568 30.656 0 11.648 4.544 21.888 13.568 30.656 9.024 8.768 19.392 13.44 31.04 14.016h44.608c11.072 0 22.016-2.496 32.832-7.424 10.816-4.992 20.288-11.84 28.416-20.544 8.704-8.384 15.552-17.856 20.544-28.608zM305.92 519.104c-5.824 8.768-8.192 15.616-6.976 20.544 1.152 4.928 6.976 7.424 17.472 7.424h112V681.856c0.576 11.648 4.544 21.888 11.84 30.656 7.296 8.768 16.448 13.44 27.584 14.016h72.64c11.648-0.576 20.864-5.248 27.584-14.016 6.72-8.768 8.896-18.944 6.592-30.656v-140.032h112c11.072 0 17.792-2.624 20.096-7.872 2.304-5.248-0.576-11.968-8.768-20.096L557.952 373.888c-15.168-16.896-33.28-25.344-54.272-25.344s-40.256 8.448-57.728 25.344L305.92 519.104z"  horiz-adv-x="1024" />

    
    <glyph glyph-name="daochuEX" unicode="&#59181;" d="M281.6 712.884706V790.708706c0 26.864941 21.805176 48.670118 48.670118 48.670118h636.928c26.864941 0 48.670118-21.805176 48.670117-48.670118 0-183.416471 0.843294-680.357647 0.843294-863.774118a48.670118 48.670118 0 0 0-48.670117-48.670117H314.488471a48.730353 48.730353 0 0 0-48.730353 48.670117v118.723765h55.175529v-63.548235a48.609882 48.609882 0 0 1 48.670118-48.730353h543.262117a48.911059 48.911059 0 0 1 48.670118 48.730353c0 169.803294-0.843294 583.619765-0.843294 753.423058a48.911059 48.911059 0 0 1-14.21553 34.454589 48.911059 48.911059 0 0 1-34.454588 14.215529H385.445647a48.911059 48.911059 0 0 1-34.454588-14.215529 48.911059 48.911059 0 0 1-14.21553-34.454589v-22.64847h-55.175529zM633.916235 712.884706l2.228706-0.120471 2.168471-0.12047 2.16847-0.180706 2.168471-0.240941 2.168471-0.301177 2.108235-0.361412 2.108235-0.421647 2.108235-0.421647 2.048-0.542117 2.048-0.542118 2.048-0.602353 1.987765-0.662588 1.987765-0.722824 1.987765-0.722823 1.927529-0.783059 1.927529-0.843294 1.867294-0.90353 1.867295-0.903529 1.807058-0.963765 1.867295-1.024 1.746823-1.084235 1.746824-1.084235 1.746823-1.144471 1.686588-1.14447 1.686589-1.204706 1.626353-1.264942 1.626352-1.325176 1.566118-1.325176 1.566118-1.385412 1.505882-1.385412 1.445647-1.445647 1.445647-1.445647 1.445647-1.505882 1.325177-1.566118 1.325176-1.566118 1.325177-1.626353 1.264941-1.626353 1.204706-1.686588 1.204706-1.686588 1.14447-1.746824 1.084236-1.746823 1.024-1.807059 1.024-1.807059 0.963764-1.807059 0.963765-1.867294 0.843294-1.927529 0.843294-1.92753 0.783059-1.927529 0.783059-1.927529 0.662588-1.987765 0.662588-2.048 0.602353-1.987765 0.542118-2.048 0.542118-2.108235 0.421647-2.048 0.421647-2.108235 0.361411-2.168471 0.301177-2.108235 0.240941-2.168471 0.180706-2.16847 0.120471-2.228706 0.12047-2.168471V141.432471l-0.12047-2.168471-0.120471-2.228706-0.180706-2.16847-0.240941-2.168471-0.301177-2.108235-0.361411-2.108236-0.421647-2.108235-0.421647-2.108235-0.542118-2.048-0.542118-2.048-0.602353-2.048-0.662588-2.048-0.662588-1.92753-0.783059-1.987764-0.783059-1.92753-0.843294-1.927529-0.843294-1.867294-0.963765-1.867294-0.963764-1.867295-1.024-1.807058-1.024-1.807059-1.084236-1.746824-1.14447-1.746823-1.204706-1.686588-1.204706-1.686589-1.264941-1.626353-1.325177-1.626353-1.325176-1.566117-1.325177-1.505883-1.445647-1.505882-1.445647-1.505882-1.445647-1.445647-1.505882-1.385412-1.566118-1.385412-1.566118-1.325176-1.626352-1.264942-1.626353-1.264941-1.686589-1.264941-1.686588-1.14447-1.746823-1.144471-1.746824-1.084235-1.746823-1.084236-1.867295-1.024-1.807058-0.963764-1.867295-0.90353-1.867294-0.903529-1.927529-0.843294-1.927529-0.783059-1.987765-0.722824-1.987765-0.722823-1.987765-0.662588-2.048-0.602353-2.048-0.542118-2.048-0.481882-2.108235-0.481883-2.108235-0.421647-2.108235-0.301176-2.168471-0.301177-2.168471-0.240941-2.16847-0.240941-2.168471-0.120471-2.228706-0.060235-2.228706-0.060235H141.854118l-2.228706 0.060235-2.168471 0.060235-2.228706 0.120471-2.16847 0.240941-2.168471 0.240941-2.108235 0.301177-2.108235 0.301176-2.108236 0.421647-2.108235 0.481883-2.048 0.481882-2.048 0.542118-2.048 0.602353-1.987765 0.662588-1.987764 0.722823-1.987765 0.722824-1.92753 0.783059-1.927529 0.843294-1.867294 0.903529-1.867294 0.90353-1.867294 0.963764-1.807059 1.024-1.807059 1.084236-1.746824 1.084235-1.746823 1.144471-1.686588 1.14447-1.686589 1.264941-1.626352 1.264941-1.566118 1.264942-1.626353 1.325176-1.505882 1.385412-1.505883 1.385412-1.505882 1.445647-1.445647 1.505882-1.385412 1.505882-1.385412 1.505883-1.325176 1.566117-1.264941 1.626353-1.264942 1.626353-1.264941 1.686589-1.14447 1.686588-1.144471 1.746823-1.084235 1.746824-1.084235 1.807059-1.024 1.807058-0.963765 1.867295-0.90353 1.867294-0.903529 1.867294-0.843294 1.927529-0.783059 1.92753-0.722823 1.987764-0.722824 1.92753-0.662588 2.048-0.602353 2.048-0.542118 2.048-0.481882 2.048-0.481883 2.108235-0.421647 2.108235-0.301176 2.108236-0.301177 2.108235-0.240941 2.168471-0.240941 2.16847-0.12047 2.228706-0.060236 2.168471-0.060235 2.228705V626.928941l0.060235 2.228706 0.060236 2.168471 0.12047 2.228706 0.240941 2.16847 0.240941 2.168471 0.301177 2.108235 0.301176 2.168471 0.421647 2.108235 0.481883 2.048 0.481882 2.108235 0.542118 2.048 0.602353 1.987765 0.662588 2.048 0.722824 1.987765 0.722823 1.927529 0.783059 1.927529 0.843294 1.92753 0.903529 1.927529 0.90353 1.867294 0.963765 1.807059 1.024 1.807059 1.084235 1.807059 1.084235 1.746823 1.144471 1.746824 1.14447 1.686588 1.264941 1.686588 1.264942 1.626353 1.264941 1.626353 1.325176 1.566118 1.385412 1.566118 1.385412 1.505882 1.445647 1.445647 1.505882 1.445647 1.505883 1.385412 1.505882 1.385412 1.626353 1.325176 1.566118 1.325176 1.626352 1.264942 1.686589 1.204706 1.686588 1.14447 1.746823 1.144471 1.746824 1.084235 1.807059 1.084235 1.807059 1.024 1.867294 0.963765 1.867294 0.903529 1.867294 0.90353 1.927529 0.843294 1.92753 0.783059 1.987765 0.722823 1.987764 0.722824 1.987765 0.662588 2.048 0.602353 2.048 0.542118 2.048 0.542117 2.108235 0.421647 2.108236 0.421647 2.108235 0.361412 2.108235 0.301177 2.168471 0.240941 2.16847 0.180706 2.228706 0.12047 2.168471 0.120471H633.916235z m-491.64047-60.235294h-1.084236l-0.722823-0.060236h-0.662588l-0.602353-0.060235-0.662589-0.12047-0.662588-0.060236-0.662588-0.12047-0.602353-0.120471-0.602353-0.12047-0.602353-0.120471-0.602353-0.180706-0.602353-0.180706-0.602353-0.180706-0.602353-0.240941-0.542117-0.180706-0.602353-0.240941-0.542118-0.240941-0.542117-0.301177-0.542118-0.240941-0.602353-0.301176-0.542118-0.301177-0.481882-0.301176-0.542118-0.361412-0.542117-0.361412-0.481883-0.301176-0.481882-0.361412-0.542118-0.421647-0.481882-0.361412-0.481882-0.421647-0.481883-0.421647-0.421647-0.421647-0.481882-0.421647-0.421647-0.481882-0.421647-0.421647-0.421647-0.481883-0.361412-0.481882-0.421647-0.481882-0.421647-0.481883-0.361412-0.542117-0.301176-0.481883-0.361412-0.481882-0.361412-0.602353-0.301176-0.481882-0.301177-0.542118-0.301176-0.542118-0.240942-0.542117-0.240941-0.542118-0.301176-0.602353-0.240941-0.602353-0.180706-0.542118-0.180706-0.602353-0.240941-0.602352-0.180706-0.542118-0.120471-0.662588-0.180706-0.602353-0.12047-0.602353-0.120471-0.602353-0.12047-0.662588-0.060236-0.602353-0.060235-0.662589-0.060235-0.662588-0.060236-0.662588-0.060235-0.662588V142.998588l0.060235-0.722823 0.060236-0.662589 0.060235-0.662588 0.060235-0.662588 0.060236-0.602353 0.12047-0.602353 0.120471-0.662588 0.12047-0.602353 0.180706-0.602353 0.120471-0.602353 0.180706-0.602353 0.240941-0.602353 0.180706-0.602353 0.180706-0.542117 0.240941-0.602353 0.301176-0.542118 0.240941-0.602353 0.240942-0.542118 0.301176-0.481882 0.301177-0.602353 0.301176-0.481882 0.361412-0.542118 0.361412-0.542118 0.301176-0.481882 0.361412-0.542118 0.421647-0.481882 0.421647-0.481882 0.361412-0.481883 0.421647-0.481882 0.421647-0.421647 0.421647-0.481882 0.481882-0.421647 0.421647-0.421647 0.481883-0.421648 0.481882-0.421647 0.481882-0.361411 0.542118-0.421647 0.481882-0.361412 0.481883-0.301177 0.542117-0.361411 0.542118-0.361412 0.481882-0.301177 0.542118-0.301176 0.602353-0.301177 0.542118-0.240941 0.542117-0.301176 0.542118-0.240941 0.602353-0.240942 0.542117-0.180705 0.602353-0.240942 0.602353-0.180706 0.602353-0.180705 0.602353-0.120471 0.602353-0.180706 0.602353-0.12047 0.602353-0.120471 0.662588-0.120471 0.662588-0.060235 0.662589-0.120471h0.602353l0.662588-0.060235 0.722823-0.060235H632.410353l0.662588 0.060235 0.662588 0.060235h0.662589l0.662588 0.120471 0.662588 0.060235 0.602353 0.120471 0.602353 0.120471 0.662588 0.12047 0.602353 0.180706 0.602353 0.120471 0.602353 0.180705 0.542118 0.180706 0.602353 0.240942 0.602353 0.180705 0.542117 0.240942 0.542118 0.240941 0.602353 0.301176 0.542117 0.240941 0.542118 0.301177 0.542118 0.301176 0.542117 0.301177 0.542118 0.361412 0.542118 0.361411 0.481882 0.301177 0.481882 0.361412 0.542118 0.421647 0.481882 0.361411 0.421647 0.421647 0.481883 0.421648 0.481882 0.421647 0.421647 0.421647 0.481883 0.481882 0.421647 0.421647 0.361411 0.481882 0.421647 0.481883 0.421648 0.481882 0.361411 0.481882 0.361412 0.542118 0.361412 0.481882 0.361412 0.542118 0.301176 0.542118 0.301177 0.481882 0.301176 0.602353 0.301176 0.481882 0.301177 0.542118 0.240941 0.602353 0.240941 0.542118 0.240941 0.602353 0.240942 0.542117 0.180706 0.602353 0.180705 0.602353 0.180706 0.602353 0.180706 0.602353 0.120471 0.602353 0.180706 0.602353 0.12047 0.662588 0.060236 0.602353 0.12047 0.602353 0.060235 0.662588 0.060236 0.662588 0.060235 0.662589V628.314353l-0.060235 0.662588-0.060236 0.662588-0.060235 0.662589-0.12047 0.602353-0.060236 0.662588-0.12047 0.602353-0.180706 0.602353-0.120471 0.602353-0.180706 0.662588-0.180706 0.542118-0.180705 0.602352-0.180706 0.602353-0.240942 0.542118-0.240941 0.602353-0.240941 0.602353-0.240941 0.542118-0.301177 0.542117-0.301176 0.542118-0.301176 0.542118-0.301177 0.481882-0.301176 0.602353-0.361412 0.481882-0.361412 0.481883-0.361412 0.542117-0.361411 0.481883-0.421648 0.481882-0.421647 0.481882-0.361411 0.481883-0.421647 0.421647-0.481883 0.481882-0.421647 0.421647-0.481882 0.421647-0.481883 0.421647-0.421647 0.421647-0.481882 0.361412-0.542118 0.421647-0.481882 0.361412-0.481882 0.301176-0.542118 0.361412-0.542118 0.361412-0.542117 0.301176-0.542118 0.301177-0.542118 0.301176-0.542117 0.240941-0.602353 0.301177-0.542118 0.240941-0.542117 0.240941-0.602353 0.180706-0.602353 0.240941-0.542118 0.180706-0.602353 0.180706-0.602353 0.180706-0.602353 0.120471-0.662588 0.12047-0.602353 0.120471-0.602353 0.12047-0.662588 0.060236-0.662588 0.12047-0.662589 0.060235h-0.662588l-0.662588 0.060236H142.275765zM480.737882 178.537412L390.625882 313.103059l-0.421647 0.843294a46.742588 46.742588 0 0 0-5.903059-8.131765l-91.075764-127.277176h-96.376471l149.684706 194.439529-133.842823 191.247059h93.063529l80.534588-129.987765c1.385412-1.626353 2.650353-3.312941 3.855059-4.999529l1.867294 3.855059c7.770353 11.083294 60.114824 96.617412 77.342118 124.687059l3.855059 6.445176h95.171764L434.597647 370.386824l142.034824-191.849412H480.737882zM763.964235 561.814588c0 18.853647 15.299765 34.153412 34.153412 34.153412h89.750588a34.153412 34.153412 0 0 0 0-68.306824h-89.750588a34.153412 34.153412 0 0 0-34.153412 34.153412z m0-174.802823c0 18.853647 15.299765 34.153412 34.153412 34.153411h89.750588a34.153412 34.153412 0 0 0 0-68.306823h-89.750588a34.153412 34.153412 0 0 0-34.153412 34.153412zM775.830588 202.511059c0 18.853647 15.299765 34.153412 34.153412 34.153412h89.750588a34.153412 34.153412 0 0 0 0-68.306824h-89.750588a34.153412 34.153412 0 0 0-34.153412 34.153412z"  horiz-adv-x="1024" />

    
    <glyph glyph-name="w_daoru" unicode="&#59184;" d="M826.368 623.872h-136.96v-51.2h136.96c15.488 0 28.032-12.544 28.032-28.032v-406.144c0-15.36-12.544-27.904-27.904-27.904h-592.64c-15.36 0-27.904 12.544-27.904 27.904v348.16h-51.2v-348.16c0-43.648 35.456-79.104 79.104-79.104h592.512c43.648 0 79.104 35.456 79.104 79.104V544.64c0 43.648-35.456 79.232-79.104 79.232zM445.952 425.6v-57.088h-95.616L519.936 215.04l169.472 153.472h-95.616v57.088s-23.296 257.408-335.104 257.408c0 0 187.264-59.136 187.264-257.408z"  horiz-adv-x="1024" />

    
    </font>
</defs>
</svg>
