<?xml version="1.0" standalone="no"?><!DOCTYPE svg PUBLIC "-//W3C//DTD SVG 1.1//EN" "http://www.w3.org/Graphics/SVG/1.1/DTD/svg11.dtd"><svg t="1587793597473" class="icon" viewBox="0 0 1024 1024" version="1.1" xmlns="http://www.w3.org/2000/svg" p-id="2581" xmlns:xlink="http://www.w3.org/1999/xlink" width="200" height="200"><defs><style type="text/css"></style></defs><path d="M912 630.3c0 85.5-70.7 155.1-157.4 155.1-3.1 0-5.8-0.4-8.6-0.4H270.6C183.1 779.9 112 713.1 112 626.4c0-58.2 31.6-109 78.9-136.7-3.1-10.2-4.7-20.7-4.7-32 0-59.7 48.8-108.2 109.8-108.2 25 0 48.5 8.6 67.2 22.7 38.3-78.9 119.5-133.6 214.4-133.6 131.6 0 237.9 105.1 237.9 234.4 0 4.7-0.4 9.4-0.4 14 56.6 23.4 96.9 78.8 96.9 143.3zM408.9 694c38.3 0 66.1-12.1 93.7-38.7-11.3-14-23.8-27.8-35.6-41.8-16 15.6-33.6 25.4-56.3 25.4-27.8 0-51.6-18.3-51.6-47.2 0-28.5 23.8-47.2 50.8-47.2 85.9 0 104.3 150 229.3 150 61 0 112.5-38.3 112.5-102.4 0-64.8-51.9-102.7-113.7-102.7-38.3 0-66.8 10.9-94.1 37.9 12.5 13.6 24.2 28.1 36.3 42.1 15.6-15.2 33.2-25 55.5-25 25.8 0 51.6 18.3 51.6 45.7 0 30.1-21.9 49.2-51.2 49.2-83.2 0-105.5-150-227.3-150-60.5 0-114 37.1-114 101.5 0 66 52 103.2 114.1 103.2z" p-id="2582" fill="#ffffff"></path></svg>